<?xml version="1.0" encoding="UTF-8" standalone="no"?>
<!-- Created with Inkscape (http://www.inkscape.org/) -->

<svg
   width="210mm"
   height="297mm"
   viewBox="0 0 210 297"
   version="1.1"
   id="svg1"
   inkscape:version="1.3 (0e150ed6c4, 2023-07-21)"
   sodipodi:docname="final.svg"
   xmlns:inkscape="http://www.inkscape.org/namespaces/inkscape"
   xmlns:sodipodi="http://sodipodi.sourceforge.net/DTD/sodipodi-0.dtd"
   xmlns="http://www.w3.org/2000/svg"
   xmlns:svg="http://www.w3.org/2000/svg">
  <sodipodi:namedview
     id="namedview1"
     pagecolor="#ffffff"
     bordercolor="#999999"
     borderopacity="1"
     inkscape:showpageshadow="0"
     inkscape:pageopacity="0"
     inkscape:pagecheckerboard="0"
     inkscape:deskcolor="#d1d1d1"
     inkscape:document-units="mm"
     inkscape:zoom="0.44631734"
     inkscape:cx="397.69909"
     inkscape:cy="561.25984"
     inkscape:window-width="1366"
     inkscape:window-height="697"
     inkscape:window-x="-8"
     inkscape:window-y="-8"
     inkscape:window-maximized="1"
     inkscape:current-layer="layer1" />
  <defs
     id="defs1" />
  <g
     inkscape:label="Layer 1"
     inkscape:groupmode="layer"
     id="layer1">
    <g
       id="g2"
       style="clip-rule:evenodd;fill-rule:evenodd;image-rendering:optimizeQuality;shape-rendering:geometricPrecision;text-rendering:geometricPrecision"
       transform="matrix(0.26458333,0,0,0.26458333,37.377825,76.918806)">
      <path
         style="opacity:0.686"
         fill="#cef4ae"
         d="m 402.5,171.5 c -3.564,-0.923 -7.231,-1.256 -11,-1 3.063,-0.701 6.23,-1.368 9.5,-2 2.158,0.55 2.658,1.55 1.5,3 z"
         id="path1" />
    </g>
    <g
       id="g3"
       style="clip-rule:evenodd;fill-rule:evenodd;image-rendering:optimizeQuality;shape-rendering:geometricPrecision;text-rendering:geometricPrecision"
       transform="matrix(0.26458333,0,0,0.26458333,37.377825,76.918806)">
      <path
         style="opacity:0.999"
         fill="#b6f086"
         d="m 391.5,170.5 c 3.769,-0.256 7.436,0.077 11,1 1.006,0.438 1.006,1.104 0,2 2.169,1.916 4.835,3.25 8,4 0.886,-0.825 1.219,-1.825 1,-3 1,-1.333 2,-1.333 3,0 0.111,0.617 0.444,1.117 1,1.5 3.317,0.498 6.65,0.665 10,0.5 1.291,1.042 1.291,2.208 0,3.5 1.769,2.7 3.102,5.534 4,8.5 -0.073,1.527 0.594,2.527 2,3 0.17,1.322 -0.163,2.489 -1,3.5 2.504,0.955 4.837,2.122 7,3.5 2.098,0.984 4.098,0.651 6,-1 1.509,-1.359 2.176,-0.859 2,1.5 -0.685,2.54 -1.519,5.04 -2.5,7.5 -3.37,3.035 -6.37,6.368 -9,10 -0.638,3.036 -0.472,6.036 0.5,9 -0.378,2.217 -1.045,4.217 -2,6 -2.584,0.069 -4.584,1.235 -6,3.5 0.228,0.399 0.562,0.565 1,0.5 0.284,1.915 -0.049,3.581 -1,5 -0.996,-0.086 -1.829,0.248 -2.5,1 -0.5,18.664 -0.667,37.33 -0.5,56 -104.991,1.145 -209.991,1.311 -315,0.5 -1.894,-1.079 -2.227,-2.413 -1,-4 104.223,-0.323 208.223,-0.156 312,0.5 1.331,-7.47 1.998,-15.304 2,-23.5 -0.333,-7.833 -0.667,-15.667 -1,-23.5 -0.798,0.457 -1.131,1.124 -1,2 -3.286,0.707 -6.619,1.04 -10,1 -0.904,-0.709 -1.237,-1.709 -1,-3 0.219,-1.175 -0.114,-2.175 -1,-3 -0.607,0.124 -0.94,0.457 -1,1 -2.24,5.203 -3.574,10.537 -4,16 -2.333,0 -4.667,0 -7,0 0.165,-3.35 -0.002,-6.683 -0.5,-10 -0.383,-0.556 -0.883,-0.889 -1.5,-1 -1.917,-2.831 -3.583,-5.831 -5,-9 0.215,-1.679 -0.452,-2.679 -2,-3 -0.934,-1.068 -1.268,-2.401 -1,-4 6.725,-1.87 10.725,0.463 12,7 0.532,2.96 1.199,3.293 2,1 0.492,-2.319 1.492,-4.319 3,-6 1.882,-0.721 2.215,-1.721 1,-3 -0.811,-4.16 -0.811,-8.494 0,-13 0.162,-2.027 -0.005,-4.027 -0.5,-6 -0.671,0.752 -1.504,1.086 -2.5,1 0.164,-2.687 -0.003,-5.354 -0.5,-8 -1.725,-0.964 -3.559,-1.631 -5.5,-2 -2.065,0.017 -4.065,0.35 -6,1 -3.402,0.158 -6.736,-0.176 -10,-1 -100.165,-0.999 -200.499,-1.333 -301,-1 0,9 0,18 0,27 -1.9743,-9.611 -2.641,-19.611 -2,-30 94.86,-0.884 189.86,-0.884 285,0 5.011,0.166 10.011,-0.001 15,-0.5 -0.663,-1.518 -1.663,-2.685 -3,-3.5 -1.242,-1.889 -1.242,-3.889 0,-6 0.871,-2.503 1.537,-5.17 2,-8 1.406,-0.473 2.073,-1.473 2,-3 3.048,-2.382 5.715,-5.048 8,-8 2.51,-0.427 4.843,-1.093 7,-2 z"
         id="path2" />
    </g>
    <g
       id="g4"
       style="clip-rule:evenodd;fill-rule:evenodd;image-rendering:optimizeQuality;shape-rendering:geometricPrecision;text-rendering:geometricPrecision"
       transform="matrix(0.26458333,0,0,0.26458333,37.377825,76.918806)">
      <path
         style="opacity:0.827"
         fill="#d7f6bb"
         d="m 391.5,170.5 c -2.157,0.907 -4.49,1.573 -7,2 1.464,-3.023 3.797,-3.69 7,-2 z"
         id="path3" />
    </g>
    <g
       id="g5"
       style="clip-rule:evenodd;fill-rule:evenodd;image-rendering:optimizeQuality;shape-rendering:geometricPrecision;text-rendering:geometricPrecision"
       transform="matrix(0.26458333,0,0,0.26458333,37.377825,76.918806)">
      <path
         style="opacity:0.822"
         fill="#daf7c1"
         d="m 402.5,173.5 c 2.287,0.224 4.453,0.891 6.5,2 0.902,-0.243 1.735,-0.577 2.5,-1 0.219,1.175 -0.114,2.175 -1,3 -3.165,-0.75 -5.831,-2.084 -8,-4 z"
         id="path4" />
    </g>
    <g
       id="g6"
       style="clip-rule:evenodd;fill-rule:evenodd;image-rendering:optimizeQuality;shape-rendering:geometricPrecision;text-rendering:geometricPrecision"
       transform="matrix(0.26458333,0,0,0.26458333,37.377825,76.918806)">
      <path
         style="opacity:0.773"
         fill="#d7f6bc"
         d="m 414.5,174.5 c 3.837,0.431 7.503,1.098 11,2 -3.35,0.165 -6.683,-0.002 -10,-0.5 -0.556,-0.383 -0.889,-0.883 -1,-1.5 z"
         id="path5" />
    </g>
    <g
       id="g7"
       style="clip-rule:evenodd;fill-rule:evenodd;image-rendering:optimizeQuality;shape-rendering:geometricPrecision;text-rendering:geometricPrecision"
       transform="matrix(0.26458333,0,0,0.26458333,37.377825,76.918806)">
      <path
         style="opacity:0.612"
         fill="#e0f8cc"
         d="m 376.5,180.5 c 0.073,1.527 -0.594,2.527 -2,3 -0.073,-1.527 0.594,-2.527 2,-3 z"
         id="path6" />
    </g>
    <g
       id="g8"
       style="clip-rule:evenodd;fill-rule:evenodd;image-rendering:optimizeQuality;shape-rendering:geometricPrecision;text-rendering:geometricPrecision"
       transform="matrix(0.26458333,0,0,0.26458333,37.377825,76.918806)">
      <path
         style="opacity:0.00700001"
         fill="#f3fceb"
         d="m 374.5,183.5 c -0.463,2.83 -1.129,5.497 -2,8 -0.163,-2.357 0.003,-4.69 0.5,-7 0.383,-0.556 0.883,-0.889 1.5,-1 z"
         id="path7" />
    </g>
    <g
       id="g9"
       style="clip-rule:evenodd;fill-rule:evenodd;image-rendering:optimizeQuality;shape-rendering:geometricPrecision;text-rendering:geometricPrecision"
       transform="matrix(0.26458333,0,0,0.26458333,37.377825,76.918806)">
      <path
         style="opacity:0.412"
         fill="#e6fad5"
         d="m 429.5,188.5 c 1.406,0.473 2.073,1.473 2,3 -1.406,-0.473 -2.073,-1.473 -2,-3 z"
         id="path8" />
    </g>
    <g
       id="g10"
       style="clip-rule:evenodd;fill-rule:evenodd;image-rendering:optimizeQuality;shape-rendering:geometricPrecision;text-rendering:geometricPrecision"
       transform="matrix(0.26458333,0,0,0.26458333,37.377825,76.918806)">
      <path
         style="opacity:1"
         fill="#c3f29b"
         d="m 431.5,191.5 c 2.713,1.714 4.713,4.047 6,7 -2.163,-1.378 -4.496,-2.545 -7,-3.5 0.837,-1.011 1.17,-2.178 1,-3.5 z"
         id="path9" />
    </g>
    <g
       id="g11"
       style="clip-rule:evenodd;fill-rule:evenodd;image-rendering:optimizeQuality;shape-rendering:geometricPrecision;text-rendering:geometricPrecision"
       transform="matrix(0.26458333,0,0,0.26458333,37.377825,76.918806)">
      <path
         style="opacity:0.314"
         fill="#ebfbde"
         d="m 443.5,197.5 c -1.902,1.651 -3.902,1.984 -6,1 1.879,-0.841 3.879,-1.175 6,-1 z"
         id="path10" />
    </g>
    <g
       id="g12"
       style="clip-rule:evenodd;fill-rule:evenodd;image-rendering:optimizeQuality;shape-rendering:geometricPrecision;text-rendering:geometricPrecision"
       transform="matrix(0.26458333,0,0,0.26458333,37.377825,76.918806)">
      <path
         style="opacity:0.00499998"
         fill="#fcfefa"
         d="m 372.5,197.5 c 1.337,0.815 2.337,1.982 3,3.5 -4.989,0.499 -9.989,0.666 -15,0.5 4.147,-0.825 8.481,-1.325 13,-1.5 -0.752,-0.671 -1.086,-1.504 -1,-2.5 z"
         id="path11" />
    </g>
    <g
       id="g13"
       style="clip-rule:evenodd;fill-rule:evenodd;image-rendering:optimizeQuality;shape-rendering:geometricPrecision;text-rendering:geometricPrecision"
       transform="matrix(0.26458333,0,0,0.26458333,37.377825,76.918806)">
      <path
         style="opacity:0.00400002"
         fill="#fcfefb"
         d="m 378.5,205.5 c -100,0 -200,0 -300,0 0.3264,8.849 -0.007,17.516 -1,26 0,-9 0,-18 0,-27 100.501,-0.333 200.835,0.001 301,1 z"
         id="path12" />
    </g>
    <g
       id="g14"
       style="clip-rule:evenodd;fill-rule:evenodd;image-rendering:optimizeQuality;shape-rendering:geometricPrecision;text-rendering:geometricPrecision"
       transform="matrix(0.26458333,0,0,0.26458333,37.377825,76.918806)">
      <path
         style="opacity:0.00400002"
         fill="#fafef7"
         d="m 378.5,205.5 c 3.264,0.824 6.598,1.158 10,1 -2.804,1.138 -5.804,1.305 -9,0.5 -0.556,-0.383 -0.889,-0.883 -1,-1.5 z"
         id="path13" />
    </g>
    <g
       id="g15"
       style="clip-rule:evenodd;fill-rule:evenodd;image-rendering:optimizeQuality;shape-rendering:geometricPrecision;text-rendering:geometricPrecision"
       transform="matrix(0.26458333,0,0,0.26458333,37.377825,76.918806)">
      <path
         style="opacity:0.175"
         fill="#e7fad7"
         d="m 394.5,205.5 c 1.941,0.369 3.775,1.036 5.5,2 0.497,2.646 0.664,5.313 0.5,8 -0.767,-0.672 -1.434,-1.505 -2,-2.5 1.247,-1.494 1.247,-2.994 0,-4.5 -1.761,-0.535 -3.094,-1.535 -4,-3 z"
         id="path14" />
    </g>
    <g
       id="g16"
       style="clip-rule:evenodd;fill-rule:evenodd;image-rendering:optimizeQuality;shape-rendering:geometricPrecision;text-rendering:geometricPrecision"
       transform="matrix(0.26458333,0,0,0.26458333,37.377825,76.918806)">
      <path
         style="opacity:0.016"
         fill="#fdfefc"
         d="m 84.5,210.5 c -0.3274,10.181 0.006,20.181 1,30 0,0.667 0,1.333 0,2 -1.3282,-4.956 -1.9949,-10.289 -2,-16 6e-4,-5.511 0.3339,-10.844 1,-16 z"
         id="path15" />
    </g>
    <g
       id="g17"
       style="clip-rule:evenodd;fill-rule:evenodd;image-rendering:optimizeQuality;shape-rendering:geometricPrecision;text-rendering:geometricPrecision"
       transform="matrix(0.26458333,0,0,0.26458333,37.377825,76.918806)">
      <path
         style="opacity:0.997"
         fill="#a9ed73"
         d="m 84.5,210.5 c 54.667,0 109.333,0 164,0 0,26 0,52 0,78 -48.929,1.161 -97.929,1.328 -147,0.5 -0.916,-0.278 -1.5825,-0.778 -2,-1.5 -0.4731,-1.406 -1.4731,-2.073 -3,-2 -1.109,-0.057 -2.109,-0.39 -3,-1 0,-1 0,-2 0,-3 -10.6667,0 -21.3333,0 -32,0 -0.6667,-1.333 -1.6667,-2.333 -3,-3 -0.6638,-2.31 -0.9971,-4.81 -1,-7.5 -0.1963,-3.805 0.4704,-7.305 2,-10.5 1.4744,-0.936 2.4744,-2.27 3,-4 1.5269,0.073 2.5269,-0.594 3,-2 1.9385,-1.663 4.2718,-2.329 7,-2 6.6998,0.33 13.3665,-0.003 20,-1 -0.1236,-0.607 -0.4569,-0.94 -1,-1 -1.4899,-1.78 -3.4899,-2.446 -6,-2 0,-1 0,-2 0,-3 0,-0.333 0,-0.667 0,-1 1.4063,-0.473 2.073,-1.473 2,-3 3.2988,-1.801 3.6322,-3.801 1,-6 -1.1266,0.622 -2.1266,1.455 -3,2.5 1.2736,0.977 1.2736,1.811 0,2.5 -0.994,-9.819 -1.3274,-19.819 -1,-30 z m 38,25 c 2.805,0.819 5.805,1.319 9,1.5 -2.982,0.498 -5.982,0.665 -9,0.5 0.632,8.073 -0.035,15.74 -2,23 0,-7.667 0,-15.333 0,-23 -3,0 -6,0 -9,0 3.474,-1.025 7.14,-1.692 11,-2 z m 61,1 c 1.333,2 3,3.667 5,5 0,1.333 -0.667,2 -2,2 -2.777,-5.722 -7.11,-7.388 -13,-5 -1.527,-0.073 -2.527,0.594 -3,2 -1.762,0.762 -2.762,2.096 -3,4 -1.134,2.466 -1.301,5.133 -0.5,8 0.377,1.442 1.21,2.442 2.5,3 0.762,1.762 2.096,2.762 4,3 3.24,1.242 6.574,1.076 10,-0.5 1.641,-1.129 2.641,-2.629 3,-4.5 1.333,0 2,0.667 2,2 -1.667,1 -3,2.333 -4,4 -1.653,0.16 -2.986,0.826 -4,2 -2.706,-0.075 -5.373,-0.408 -8,-1 -9.305,-6.338 -10.305,-13.838 -3,-22.5 4.423,-2.703 9.089,-3.203 14,-1.5 z m -43,0 c 5.011,-0.166 10.011,0.001 15,0.5 -4.188,0.176 -8.188,0.676 -12,1.5 -0.977,2.787 -1.31,5.787 -1,9 4.014,-0.166 8.014,0.001 12,0.5 -3.856,0.177 -7.523,0.677 -11,1.5 -1.333,3 -1.333,6 0,9 3.812,0.824 7.812,1.324 12,1.5 -4.989,0.499 -9.989,0.666 -15,0.5 0.483,-8.048 0.483,-16.048 0,-24 z m 59,0 c 1.914,3.184 2.58,6.851 2,11 5.195,0.321 10.195,-0.013 15,-1 0,-3.333 0,-6.667 0,-10 1.324,3.607 1.991,7.607 2,12 -0.009,4.393 -0.676,8.393 -2,12 0,-3.667 0,-7.333 0,-11 -4.821,-1.097 -9.487,-1.097 -14,0 -0.375,3.942 -1.375,7.609 -3,11 0,-8 0,-16 0,-24 z m -130,22 c 1.599,-0.268 2.9324,0.066 4,1 -0.6667,0 -1,0.333 -1,1 -0.3333,0 -0.6667,0 -1,0 -0.3623,6.504 2.1377,8.171 7.5,5 0.7796,-1.887 0.6129,-3.554 -0.5,-5 0,-0.667 -0.3333,-1 -1,-1 4.1463,-1.147 8.4796,-1.314 13,-0.5 -0.556,0.383 -0.8893,0.883 -1,1.5 -2.6667,1.667 -2.6667,3.333 0,5 0.2911,1.149 1.1244,1.816 2.5,2 1.0698,-0.028 1.9032,-0.361 2.5,-1 2.0124,-1.708 2.3458,-3.708 1,-6 -0.7625,-0.768 -1.7625,-1.268 -3,-1.5 1.2932,-0.49 2.6266,-0.657 4,-0.5 0.4887,1.495 1.1554,2.829 2,4 -0.6667,2.333 -1.3333,4.667 -2,7 -8.7423,-0.254 -17.409,-0.254 -26,0 -1.7994,-3.005 -2.4661,-6.338 -2,-10 0.6667,0 1,-0.333 1,-1 z m 39,6 c 1.914,3.184 2.58,6.851 2,11 -0.667,-2.667 -1.333,-5.333 -2,-8 0,-1 0,-2 0,-3 z m -17,9 c -0.575,1.911 -1.575,3.578 -3,5 -2.9299,0.799 -5.9299,1.132 -9,1 -1.9727,-1.306 -3.6394,-2.973 -5,-5 0.6667,0 1.3333,0 2,0 4.9876,1.339 9.9876,1.005 15,-1 z"
         id="path16" />
    </g>
    <g
       id="g18"
       style="clip-rule:evenodd;fill-rule:evenodd;image-rendering:optimizeQuality;shape-rendering:geometricPrecision;text-rendering:geometricPrecision"
       transform="matrix(0.26458333,0,0,0.26458333,37.377825,76.918806)">
      <path
         style="opacity:0.493"
         fill="#e7fad7"
         d="m 84.5,210.5 c 54.831,-0.999 109.831,-1.332 165,-1 0.331,26.505 -0.002,52.839 -1,79 0,-26 0,-52 0,-78 -54.667,0 -109.333,0 -164,0 z"
         id="path17" />
    </g>
    <g
       id="g19"
       style="clip-rule:evenodd;fill-rule:evenodd;image-rendering:optimizeQuality;shape-rendering:geometricPrecision;text-rendering:geometricPrecision"
       transform="matrix(0.26458333,0,0,0.26458333,37.377825,76.918806)">
      <path
         style="opacity:0.00799997"
         fill="#f9fef6"
         d="m 396.5,211.5 c 1.333,0.667 1.333,0.667 0,0 z"
         id="path18" />
    </g>
    <g
       id="g20"
       style="clip-rule:evenodd;fill-rule:evenodd;image-rendering:optimizeQuality;shape-rendering:geometricPrecision;text-rendering:geometricPrecision"
       transform="matrix(0.26458333,0,0,0.26458333,37.377825,76.918806)">
      <path
         style="opacity:1"
         fill="#ccf4a9"
         d="m 403.5,220.5 c -0.808,-1.72 -1.808,-3.387 -3,-5 0.996,0.086 1.829,-0.248 2.5,-1 0.495,1.973 0.662,3.973 0.5,6 z"
         id="path19" />
    </g>
    <g
       id="g21"
       style="clip-rule:evenodd;fill-rule:evenodd;image-rendering:optimizeQuality;shape-rendering:geometricPrecision;text-rendering:geometricPrecision"
       transform="matrix(0.26458333,0,0,0.26458333,37.377825,76.918806)">
      <path
         style="opacity:0.059"
         fill="#f7fdf1"
         d="m 437.5,226.5 c -2.501,-0.011 -2.668,-0.678 -0.5,-2 0.464,0.594 0.631,1.261 0.5,2 z"
         id="path20" />
    </g>
    <g
       id="g22"
       style="clip-rule:evenodd;fill-rule:evenodd;image-rendering:optimizeQuality;shape-rendering:geometricPrecision;text-rendering:geometricPrecision"
       transform="matrix(0.26458333,0,0,0.26458333,37.377825,76.918806)">
      <path
         style="opacity:0.067"
         fill="#f3fdec"
         d="m 437.5,226.5 c 1.333,0.667 1.333,0.667 0,0 z"
         id="path21" />
    </g>
    <g
       id="g23"
       style="clip-rule:evenodd;fill-rule:evenodd;image-rendering:optimizeQuality;shape-rendering:geometricPrecision;text-rendering:geometricPrecision"
       transform="matrix(0.26458333,0,0,0.26458333,37.377825,76.918806)">
      <path
         style="opacity:0.994"
         fill="#afee7b"
         d="m 61.5,247.5 c -1.3333,0 -2,0.667 -2,2 0,1 0,2 0,3 0.2148,1.679 -0.4519,2.679 -2,3 -1.6667,-1 -3,-2.333 -4,-4 -0.7899,-1.294 -1.7899,-2.461 -3,-3.5 -11.3788,-0.209 -22.7121,-0.709 -34,-1.5 -0.6641,-2.478 -0.9975,-5.145 -1,-8 -0.2009,-3.873 0.4658,-7.539 2,-11 11.8941,-0.478 23.5607,-0.811 35,-1 3,0.167 6,0.333 9,0.5 0.5,0.5 1,1 1.5,1.5 0.6667,6 0.6667,12 0,18 -0.3826,0.556 -0.8826,0.889 -1.5,1 z"
         id="path22" />
    </g>
    <g
       id="g24"
       style="clip-rule:evenodd;fill-rule:evenodd;image-rendering:optimizeQuality;shape-rendering:geometricPrecision;text-rendering:geometricPrecision"
       transform="matrix(0.26458333,0,0,0.26458333,37.377825,76.918806)">
      <path
         style="opacity:0.988"
         fill="#bcf18f"
         d="m 443.5,227.5 c -0.221,4.702 -1.554,9.369 -4,14 -1.333,0 -2.667,0 -4,0 -0.639,-0.597 -0.972,-1.43 -1,-2.5 1.191,-2.838 2.191,-5.672 3,-8.5 2.447,-0.115 4.447,-1.115 6,-3 z"
         id="path23" />
    </g>
    <g
       id="g25"
       style="clip-rule:evenodd;fill-rule:evenodd;image-rendering:optimizeQuality;shape-rendering:geometricPrecision;text-rendering:geometricPrecision"
       transform="matrix(0.26458333,0,0,0.26458333,37.377825,76.918806)">
      <path
         style="opacity:0.62"
         fill="#dff8c9"
         d="m 443.5,227.5 c -1.553,1.885 -3.553,2.885 -6,3 1.436,-0.929 2.769,-2.095 4,-3.5 0.937,-0.692 1.603,-0.525 2,0.5 z"
         id="path24" />
    </g>
    <g
       id="g26"
       style="clip-rule:evenodd;fill-rule:evenodd;image-rendering:optimizeQuality;shape-rendering:geometricPrecision;text-rendering:geometricPrecision"
       transform="matrix(0.26458333,0,0,0.26458333,37.377825,76.918806)">
      <path
         style="opacity:0.49"
         fill="#cdf4ae"
         d="m 28.5,228.5 c 0.7216,0.418 1.2216,1.084 1.5,2 1.9189,-1.471 2.9189,-1.138 3,1 -1.3985,0.551 -2.7318,0.884 -4,1 -0.6667,-2.667 -1.3333,-2.667 -2,0 -0.484,-1.693 0.016,-3.027 1.5,-4 z"
         id="path25" />
    </g>
    <g
       id="g27"
       style="clip-rule:evenodd;fill-rule:evenodd;image-rendering:optimizeQuality;shape-rendering:geometricPrecision;text-rendering:geometricPrecision"
       transform="matrix(0.26458333,0,0,0.26458333,37.377825,76.918806)">
      <path
         style="opacity:0.631"
         fill="#cdf4ae"
         d="m 37.5,229.5 c 0.06,-0.543 0.3933,-0.876 1,-1 0.7508,0.876 1.2508,1.876 1.5,3 0.7253,-1.658 1.892,-2.158 3.5,-1.5 -2.6667,0.667 -2.6667,1.333 0,2 -2,0.667 -4,0.667 -6,0 1.2736,-0.977 1.2736,-1.811 0,-2.5 z"
         id="path26" />
    </g>
    <g
       id="g28"
       style="clip-rule:evenodd;fill-rule:evenodd;image-rendering:optimizeQuality;shape-rendering:geometricPrecision;text-rendering:geometricPrecision"
       transform="matrix(0.26458333,0,0,0.26458333,37.377825,76.918806)">
      <path
         style="opacity:0.00400002"
         fill="#f1fce7"
         d="m 432.5,231.5 c -1.642,1.303 -3.309,2.636 -5,4 -0.438,0.065 -0.772,-0.101 -1,-0.5 1.416,-2.265 3.416,-3.431 6,-3.5 z"
         id="path27" />
    </g>
    <g
       id="g29"
       style="clip-rule:evenodd;fill-rule:evenodd;image-rendering:optimizeQuality;shape-rendering:geometricPrecision;text-rendering:geometricPrecision"
       transform="matrix(0.26458333,0,0,0.26458333,37.377825,76.918806)">
      <path
         style="opacity:0.339"
         fill="#ecfbe0"
         d="m 75.5,201.5 c -0.641,10.389 0.0257,20.389 2,30 -1.062,1.599 -1.062,3.266 0,5 -0.6174,-0.111 -1.1174,-0.444 -1.5,-1 -0.8275,4.371 -0.6609,8.705 0.5,13 0.9892,-3.607 1.3226,-7.274 1,-11 1.3095,3.851 1.3095,7.851 0,12 -0.6667,0.333 -1.3333,0.667 -2,1 -0.7979,-3.982 -1.4646,-7.982 -2,-12 0.0985,-10.626 0.2651,-21.293 0.5,-32 0.1981,-1.882 0.6981,-3.548 1.5,-5 z"
         id="path28" />
    </g>
    <g
       id="g30"
       style="clip-rule:evenodd;fill-rule:evenodd;image-rendering:optimizeQuality;shape-rendering:geometricPrecision;text-rendering:geometricPrecision"
       transform="matrix(0.26458333,0,0,0.26458333,37.377825,76.918806)">
      <path
         style="opacity:0.226"
         fill="#eefbe3"
         d="m 363.5,235.5 c 6.813,-0.991 13.813,-1.325 21,-1 0.302,2.559 -0.032,4.893 -1,7 0,-2 0,-4 0,-6 -6.667,0 -13.333,0 -20,0 z"
         id="path29" />
    </g>
    <g
       id="g31"
       style="clip-rule:evenodd;fill-rule:evenodd;image-rendering:optimizeQuality;shape-rendering:geometricPrecision;text-rendering:geometricPrecision"
       transform="matrix(0.26458333,0,0,0.26458333,37.377825,76.918806)">
      <path
         style="opacity:0.224"
         fill="#eafade"
         d="m 403.5,233.5 c 1.215,1.279 0.882,2.279 -1,3 0.057,-1.109 0.39,-2.109 1,-3 z"
         id="path30" />
    </g>
    <g
       id="g32"
       style="clip-rule:evenodd;fill-rule:evenodd;image-rendering:optimizeQuality;shape-rendering:geometricPrecision;text-rendering:geometricPrecision"
       transform="matrix(0.26458333,0,0,0.26458333,37.377825,76.918806)">
      <path
         style="opacity:0.993"
         fill="#a7ed70"
         d="m 77.5,236.5 c 0,0.333 0,0.667 0,1 0.3226,3.726 -0.0108,7.393 -1,11 -1.1609,-4.295 -1.3275,-8.629 -0.5,-13 0.3826,0.556 0.8826,0.889 1.5,1 z"
         id="path31" />
    </g>
    <g
       id="g33"
       style="clip-rule:evenodd;fill-rule:evenodd;image-rendering:optimizeQuality;shape-rendering:geometricPrecision;text-rendering:geometricPrecision"
       transform="matrix(0.26458333,0,0,0.26458333,37.377825,76.918806)">
      <path
         style="opacity:0.00700001"
         fill="#fefffe"
         d="m 216.5,236.5 c 0.709,-0.904 1.709,-1.237 3,-1 0,8.667 0,17.333 0,26 -1.291,0.237 -2.291,-0.096 -3,-1 1.324,-3.607 1.991,-7.607 2,-12 -0.009,-4.393 -0.676,-8.393 -2,-12 z"
         id="path32" />
    </g>
    <g
       id="g34"
       style="clip-rule:evenodd;fill-rule:evenodd;image-rendering:optimizeQuality;shape-rendering:geometricPrecision;text-rendering:geometricPrecision"
       transform="matrix(0.26458333,0,0,0.26458333,37.377825,76.918806)">
      <path
         style="opacity:0.515"
         fill="#dbf7c4"
         d="m 281.5,235.5 c -5.667,0 -11.333,0 -17,0 0,8.667 0,17.333 0,26 -0.993,-8.818 -1.327,-17.818 -1,-27 6.19,-0.323 12.19,0.01 18,1 z"
         id="path33" />
    </g>
    <g
       id="g35"
       style="clip-rule:evenodd;fill-rule:evenodd;image-rendering:optimizeQuality;shape-rendering:geometricPrecision;text-rendering:geometricPrecision"
       transform="matrix(0.26458333,0,0,0.26458333,37.377825,76.918806)">
      <path
         style="opacity:0.995"
         fill="#a9ed73"
         d="m 281.5,235.5 c 0,2 0,4 0,6 -3.333,0 -6.667,0 -10,0 0,2 0,4 0,6 3,0 6,0 9,0 0.258,1.69 0.258,3.69 0,6 -3,0 -6,0 -9,0 0,2.667 0,5.333 0,8 -2.441,1.256 -4.774,1.256 -7,0 0,-8.667 0,-17.333 0,-26 5.667,0 11.333,0 17,0 z"
         id="path34" />
    </g>
    <g
       id="g36"
       style="clip-rule:evenodd;fill-rule:evenodd;image-rendering:optimizeQuality;shape-rendering:geometricPrecision;text-rendering:geometricPrecision"
       transform="matrix(0.26458333,0,0,0.26458333,37.377825,76.918806)">
      <path
         style="opacity:0.00400002"
         fill="#fefffe"
         d="m 285.5,235.5 c 0,8.667 0,17.333 0,26 -0.68,-8.068 -1.347,-16.235 -2,-24.5 0.544,-0.717 1.211,-1.217 2,-1.5 z"
         id="path35" />
    </g>
    <g
       id="g37"
       style="clip-rule:evenodd;fill-rule:evenodd;image-rendering:optimizeQuality;shape-rendering:geometricPrecision;text-rendering:geometricPrecision"
       transform="matrix(0.26458333,0,0,0.26458333,37.377825,76.918806)">
      <path
         style="opacity:0.996"
         fill="#b1ef7e"
         d="m 304.5,252.5 c -1.215,1.279 -0.882,2.279 1,3 2.034,1.865 2.701,4.032 2,6.5 -5.792,2.023 -9.458,0.189 -11,-5.5 0,-1 0,-2 0,-3 -1.322,-0.17 -2.489,0.163 -3.5,1 -0.497,2.31 -0.663,4.643 -0.5,7 -2.333,1.333 -4.667,1.333 -7,0 0,-8.667 0,-17.333 0,-26 6.705,-1.608 13.372,-1.108 20,1.5 4.196,5.597 3.863,10.763 -1,15.5 z m -6,-10 c 1.184,1.188 1.184,2.355 0,3.5 -1.634,0.494 -3.301,0.66 -5,0.5 0,-1.333 0,-2.667 0,-4 1.667,0 3.333,0 5,0 z"
         id="path36" />
    </g>
    <g
       id="g38"
       style="clip-rule:evenodd;fill-rule:evenodd;image-rendering:optimizeQuality;shape-rendering:geometricPrecision;text-rendering:geometricPrecision"
       transform="matrix(0.26458333,0,0,0.26458333,37.377825,76.918806)">
      <path
         style="opacity:0.995"
         fill="#b5ef84"
         d="m 330.5,241.5 c -3.667,0 -7.333,0 -11,0 0,1.333 0,2.667 0,4 3.333,0 6.667,0 10,0 1.333,2 1.333,4 0,6 -3.333,0 -6.667,0 -10,0 0,1.333 0,2.667 0,4 3.667,0 7.333,0 11,0 0,2 0,4 0,6 -6.079,1.307 -12.245,1.307 -18.5,0 -0.748,-9.035 -0.581,-18.035 0.5,-27 6.009,-0.166 12.009,0.001 18,0.5 1.311,2.274 1.311,4.44 0,6.5 z"
         id="path37" />
    </g>
    <g
       id="g39"
       style="clip-rule:evenodd;fill-rule:evenodd;image-rendering:optimizeQuality;shape-rendering:geometricPrecision;text-rendering:geometricPrecision"
       transform="matrix(0.26458333,0,0,0.26458333,37.377825,76.918806)">
      <path
         style="opacity:0.246"
         fill="#ebfbde"
         d="m 342.5,236.5 c -2.217,-0.869 -4.55,-1.202 -7,-1 0,8.667 0,17.333 0,26 -0.993,-8.818 -1.327,-17.818 -1,-27 3.198,-0.536 5.865,0.131 8,2 z"
         id="path38" />
    </g>
    <g
       id="g40"
       style="clip-rule:evenodd;fill-rule:evenodd;image-rendering:optimizeQuality;shape-rendering:geometricPrecision;text-rendering:geometricPrecision"
       transform="matrix(0.26458333,0,0,0.26458333,37.377825,76.918806)">
      <path
         style="opacity:0.995"
         fill="#aaed74"
         d="m 342.5,236.5 c 1.762,0.762 2.762,2.096 3,4 0.58,2.249 1.913,3.915 4,5 0.283,0.789 0.783,1.456 1.5,2 0.499,-3.986 0.666,-7.986 0.5,-12 2.333,0 4.667,0 7,0 0,8.667 0,17.333 0,26 -0.774,0.647 -1.774,0.98 -3,1 -1.855,0.16 -3.188,-0.507 -4,-2 -0.054,-2.132 -1.054,-3.465 -3,-4 -0.054,-2.132 -1.054,-3.465 -3,-4 -0.185,-1.696 -1.019,-3.029 -2.5,-4 -0.499,4.321 -0.666,8.654 -0.5,13 -2.333,1.333 -4.667,1.333 -7,0 0,-8.667 0,-17.333 0,-26 2.45,-0.202 4.783,0.131 7,1 z"
         id="path39" />
    </g>
    <g
       id="g41"
       style="clip-rule:evenodd;fill-rule:evenodd;image-rendering:optimizeQuality;shape-rendering:geometricPrecision;text-rendering:geometricPrecision"
       transform="matrix(0.26458333,0,0,0.26458333,37.377825,76.918806)">
      <path
         style="opacity:0.095"
         fill="#edfbe1"
         d="m 358.5,261.5 c 0,-8.667 0,-17.333 0,-26 -2.333,0 -4.667,0 -7,0 0.166,4.014 -10e-4,8.014 -0.5,12 -0.717,-0.544 -1.217,-1.211 -1.5,-2 0.982,-3.462 1.315,-7.129 1,-11 3,0 6,0 9,0 0.327,9.182 -0.007,18.182 -1,27 z"
         id="path40" />
    </g>
    <g
       id="g42"
       style="clip-rule:evenodd;fill-rule:evenodd;image-rendering:optimizeQuality;shape-rendering:geometricPrecision;text-rendering:geometricPrecision"
       transform="matrix(0.26458333,0,0,0.26458333,37.377825,76.918806)">
      <path
         style="opacity:0.995"
         fill="#afee7c"
         d="m 363.5,235.5 c 6.667,0 13.333,0 20,0 0,2 0,4 0,6 -1.982,3.31 -4.315,6.31 -7,9 -1.228,0.806 -2.228,1.806 -3,3 -0.543,0.06 -0.876,0.393 -1,1 3.607,0.989 7.274,1.323 11,1 0,2 0,4 0,6 -6.667,1.333 -13.333,1.333 -20,0 -0.099,-2.737 0.235,-5.404 1,-8 1.201,-2.409 2.867,-4.409 5,-6 1.406,-0.473 2.073,-1.473 2,-3 0.978,-0.311 1.645,-0.978 2,-2 -3.268,-0.987 -6.602,-1.32 -10,-1 -0.775,-2.112 -0.775,-4.112 0,-6 z"
         id="path41" />
    </g>
    <g
       id="g43"
       style="clip-rule:evenodd;fill-rule:evenodd;image-rendering:optimizeQuality;shape-rendering:geometricPrecision;text-rendering:geometricPrecision"
       transform="matrix(0.26458333,0,0,0.26458333,37.377825,76.918806)">
      <path
         style="opacity:0.00400002"
         fill="#fefffe"
         d="m 332.5,236.5 c 1.113,1.446 1.28,3.113 0.5,5 -0.494,-1.634 -0.66,-3.301 -0.5,-5 z"
         id="path42" />
    </g>
    <g
       id="g44"
       style="clip-rule:evenodd;fill-rule:evenodd;image-rendering:optimizeQuality;shape-rendering:geometricPrecision;text-rendering:geometricPrecision"
       transform="matrix(0.26458333,0,0,0.26458333,37.377825,76.918806)">
      <path
         style="opacity:0.688"
         fill="#cbf4ab"
         d="m 27.5,237.5 c 2.3568,-0.163 4.6902,0.003 7,0.5 -2.6667,0.667 -2.6667,1.333 0,2 -2,0.667 -4,0.667 -6,0 -0.7524,-0.671 -1.0858,-1.504 -1,-2.5 z"
         id="path43" />
    </g>
    <g
       id="g45"
       style="clip-rule:evenodd;fill-rule:evenodd;image-rendering:optimizeQuality;shape-rendering:geometricPrecision;text-rendering:geometricPrecision"
       transform="matrix(0.26458333,0,0,0.26458333,37.377825,76.918806)">
      <path
         style="opacity:0.00400002"
         fill="#ecfbdf"
         d="m 88.5,235.5 c 2.6322,2.199 2.2988,4.199 -1,6 0.2031,-1.544 0.8698,-2.878 2,-4 -0.3627,-0.683 -0.6961,-1.35 -1,-2 z"
         id="path44" />
    </g>
    <g
       id="g46"
       style="clip-rule:evenodd;fill-rule:evenodd;image-rendering:optimizeQuality;shape-rendering:geometricPrecision;text-rendering:geometricPrecision"
       transform="matrix(0.26458333,0,0,0.26458333,37.377825,76.918806)">
      <path
         style="opacity:0.144"
         fill="#f5fdef"
         d="m 140.5,236.5 c 5.14,-0.988 10.474,-1.321 16,-1 0,1 0,2 0,3 -4.333,0 -8.667,0 -13,0 3.812,-0.824 7.812,-1.324 12,-1.5 -4.989,-0.499 -9.989,-0.666 -15,-0.5 z"
         id="path45" />
    </g>
    <g
       id="g47"
       style="clip-rule:evenodd;fill-rule:evenodd;image-rendering:optimizeQuality;shape-rendering:geometricPrecision;text-rendering:geometricPrecision"
       transform="matrix(0.26458333,0,0,0.26458333,37.377825,76.918806)">
      <path
         style="opacity:0.275"
         fill="#effbe5"
         d="m 183.5,236.5 c 2.667,0.667 4.333,2.333 5,5 -2,-1.333 -3.667,-3 -5,-5 z"
         id="path46" />
    </g>
    <g
       id="g48"
       style="clip-rule:evenodd;fill-rule:evenodd;image-rendering:optimizeQuality;shape-rendering:geometricPrecision;text-rendering:geometricPrecision"
       transform="matrix(0.26458333,0,0,0.26458333,37.377825,76.918806)">
      <path
         style="opacity:0.655"
         fill="#d0f5b2"
         d="m 44.5,236.5 c 0.9345,1.068 1.2678,2.401 1,4 -1,0 -2,0 -3,0 0.0271,-1.699 0.6938,-3.033 2,-4 z"
         id="path47" />
    </g>
    <g
       id="g49"
       style="clip-rule:evenodd;fill-rule:evenodd;image-rendering:optimizeQuality;shape-rendering:geometricPrecision;text-rendering:geometricPrecision"
       transform="matrix(0.26458333,0,0,0.26458333,37.377825,76.918806)">
      <path
         style="opacity:0.669"
         fill="#d2f5b4"
         d="m 111.5,237.5 c 3,0 6,0 9,0 0,7.667 0,15.333 0,23 0,0.333 0,0.667 0,1 -0.992,-7.482 -1.325,-15.148 -1,-23 -2.885,0.306 -5.552,-0.027 -8,-1 z"
         id="path48" />
    </g>
    <g
       id="g50"
       style="clip-rule:evenodd;fill-rule:evenodd;image-rendering:optimizeQuality;shape-rendering:geometricPrecision;text-rendering:geometricPrecision"
       transform="matrix(0.26458333,0,0,0.26458333,37.377825,76.918806)">
      <path
         style="opacity:0.06"
         fill="#fafef6"
         d="m 122.5,235.5 c 3.333,0 6.667,0 10,0 0,1 0,2 0,3 -3,0 -6,0 -9,0 0,7.667 0,15.333 0,23 -1,0 -2,0 -3,0 0,-0.333 0,-0.667 0,-1 1.965,-7.26 2.632,-14.927 2,-23 3.018,0.165 6.018,-0.002 9,-0.5 -3.195,-0.181 -6.195,-0.681 -9,-1.5 z"
         id="path49" />
    </g>
    <g
       id="g51"
       style="clip-rule:evenodd;fill-rule:evenodd;image-rendering:optimizeQuality;shape-rendering:geometricPrecision;text-rendering:geometricPrecision"
       transform="matrix(0.26458333,0,0,0.26458333,37.377825,76.918806)">
      <path
         style="opacity:0.00400002"
         fill="#fefffe"
         d="m 360.5,238.5 c 1.025,0.397 1.192,1.063 0.5,2 -0.464,-0.594 -0.631,-1.261 -0.5,-2 z"
         id="path50" />
    </g>
    <g
       id="g52"
       style="clip-rule:evenodd;fill-rule:evenodd;image-rendering:optimizeQuality;shape-rendering:geometricPrecision;text-rendering:geometricPrecision"
       transform="matrix(0.26458333,0,0,0.26458333,37.377825,76.918806)">
      <path
         style="opacity:0.871"
         fill="#d7f6bb"
         d="m 386.5,238.5 c 1.548,0.321 2.215,1.321 2,3 -0.901,-0.79 -1.568,-1.79 -2,-3 z"
         id="path51" />
    </g>
    <g
       id="g53"
       style="clip-rule:evenodd;fill-rule:evenodd;image-rendering:optimizeQuality;shape-rendering:geometricPrecision;text-rendering:geometricPrecision"
       transform="matrix(0.26458333,0,0,0.26458333,37.377825,76.918806)">
      <path
         style="opacity:0.769"
         fill="#d6f6ba"
         d="m 173.5,238.5 c -0.473,1.406 -1.473,2.073 -3,2 0.473,-1.406 1.473,-2.073 3,-2 z"
         id="path52" />
    </g>
    <g
       id="g54"
       style="clip-rule:evenodd;fill-rule:evenodd;image-rendering:optimizeQuality;shape-rendering:geometricPrecision;text-rendering:geometricPrecision"
       transform="matrix(0.26458333,0,0,0.26458333,37.377825,76.918806)">
      <path
         style="opacity:0.47"
         fill="#dcf8c6"
         d="m 363.5,241.5 c 3.398,-0.32 6.732,0.013 10,1 -0.355,1.022 -1.022,1.689 -2,2 -2.357,-1.598 -5.023,-2.598 -8,-3 z"
         id="path53" />
    </g>
    <g
       id="g55"
       style="clip-rule:evenodd;fill-rule:evenodd;image-rendering:optimizeQuality;shape-rendering:geometricPrecision;text-rendering:geometricPrecision"
       transform="matrix(0.26458333,0,0,0.26458333,37.377825,76.918806)">
      <path
         style="opacity:0.569"
         fill="#e8fad8"
         d="m 435.5,241.5 c 1.333,0 2.667,0 4,0 -1.532,2.281 -2.866,2.281 -4,0 z"
         id="path54" />
    </g>
    <g
       id="g56"
       style="clip-rule:evenodd;fill-rule:evenodd;image-rendering:optimizeQuality;shape-rendering:geometricPrecision;text-rendering:geometricPrecision"
       transform="matrix(0.26458333,0,0,0.26458333,37.377825,76.918806)">
      <path
         style="opacity:0.604"
         fill="#d9f7bf"
         d="m 170.5,240.5 c -1.008,2.044 -2.008,4.044 -3,6 0,-0.667 0,-1.333 0,-2 0.238,-1.904 1.238,-3.238 3,-4 z"
         id="path55" />
    </g>
    <g
       id="g57"
       style="clip-rule:evenodd;fill-rule:evenodd;image-rendering:optimizeQuality;shape-rendering:geometricPrecision;text-rendering:geometricPrecision"
       transform="matrix(0.26458333,0,0,0.26458333,37.377825,76.918806)">
      <path
         style="opacity:0.376"
         fill="#e9fadb"
         d="m 397.5,241.5 c 0.667,0.333 1.333,0.667 2,1 -0.801,2.293 -1.468,1.96 -2,-1 z"
         id="path56" />
    </g>
    <g
       id="g58"
       style="clip-rule:evenodd;fill-rule:evenodd;image-rendering:optimizeQuality;shape-rendering:geometricPrecision;text-rendering:geometricPrecision"
       transform="matrix(0.26458333,0,0,0.26458333,37.377825,76.918806)">
      <path
         style="opacity:0.067"
         fill="#f2fce9"
         d="m 87.5,241.5 c 0.073,1.527 -0.5937,2.527 -2,3 0,-0.667 0,-1.333 0,-2 0.6667,-0.333 1.3333,-0.667 2,-1 z"
         id="path57" />
    </g>
    <g
       id="g59"
       style="clip-rule:evenodd;fill-rule:evenodd;image-rendering:optimizeQuality;shape-rendering:geometricPrecision;text-rendering:geometricPrecision"
       transform="matrix(0.26458333,0,0,0.26458333,37.377825,76.918806)">
      <path
         style="opacity:0.284"
         fill="#e3f9d1"
         d="m 188.5,241.5 c 0.978,0.311 1.645,0.978 2,2 -1.458,1.282 -2.792,1.282 -4,0 1.333,0 2,-0.667 2,-2 z"
         id="path58" />
    </g>
    <g
       id="g60"
       style="clip-rule:evenodd;fill-rule:evenodd;image-rendering:optimizeQuality;shape-rendering:geometricPrecision;text-rendering:geometricPrecision"
       transform="matrix(0.26458333,0,0,0.26458333,37.377825,76.918806)">
      <path
         style="opacity:0.00400002"
         fill="#fbfef8"
         d="m 167.5,244.5 c 0,0.667 0,1.333 0,2 -0.095,3.192 0.571,6.192 2,9 -1.29,-0.558 -2.123,-1.558 -2.5,-3 -0.801,-2.867 -0.634,-5.534 0.5,-8 z"
         id="path59" />
    </g>
    <g
       id="g61"
       style="clip-rule:evenodd;fill-rule:evenodd;image-rendering:optimizeQuality;shape-rendering:geometricPrecision;text-rendering:geometricPrecision"
       transform="matrix(0.26458333,0,0,0.26458333,37.377825,76.918806)">
      <path
         style="opacity:0.302"
         fill="#ebfbde"
         d="m 330.5,241.5 c -3.189,0.666 -6.523,1.333 -10,2 2.602,0.911 5.435,0.911 8.5,0 0.464,0.594 0.631,1.261 0.5,2 -3.333,0 -6.667,0 -10,0 0,-1.333 0,-2.667 0,-4 3.667,0 7.333,0 11,0 z"
         id="path60" />
    </g>
    <g
       id="g62"
       style="clip-rule:evenodd;fill-rule:evenodd;image-rendering:optimizeQuality;shape-rendering:geometricPrecision;text-rendering:geometricPrecision"
       transform="matrix(0.26458333,0,0,0.26458333,37.377825,76.918806)">
      <path
         style="opacity:0.255"
         fill="#e2f9cf"
         d="m 345.5,240.5 c 2.087,1.085 3.42,2.751 4,5 -2.087,-1.085 -3.42,-2.751 -4,-5 z"
         id="path61" />
    </g>
    <g
       id="g63"
       style="clip-rule:evenodd;fill-rule:evenodd;image-rendering:optimizeQuality;shape-rendering:geometricPrecision;text-rendering:geometricPrecision"
       transform="matrix(0.26458333,0,0,0.26458333,37.377825,76.918806)">
      <path
         style="opacity:0.103"
         fill="#f3fceb"
         d="m 426.5,240.5 c -0.283,0.789 -0.783,1.456 -1.5,2 -0.168,18.505 -0.668,36.838 -1.5,55 -0.167,-18.67 0,-37.336 0.5,-56 0.671,-0.752 1.504,-1.086 2.5,-1 z"
         id="path62" />
    </g>
    <g
       id="g64"
       style="clip-rule:evenodd;fill-rule:evenodd;image-rendering:optimizeQuality;shape-rendering:geometricPrecision;text-rendering:geometricPrecision"
       transform="matrix(0.26458333,0,0,0.26458333,37.377825,76.918806)">
      <path
         style="opacity:0.141"
         fill="#f7fdf2"
         d="m 143.5,238.5 c 0,2.667 0,5.333 0,8 4,0 8,0 12,0 0,1 0,2 0,3 -4,0 -8,0 -12,0 3.477,-0.823 7.144,-1.323 11,-1.5 -3.986,-0.499 -7.986,-0.666 -12,-0.5 -0.31,-3.213 0.023,-6.213 1,-9 z"
         id="path63" />
    </g>
    <g
       id="g65"
       style="clip-rule:evenodd;fill-rule:evenodd;image-rendering:optimizeQuality;shape-rendering:geometricPrecision;text-rendering:geometricPrecision"
       transform="matrix(0.26458333,0,0,0.26458333,37.377825,76.918806)">
      <path
         style="opacity:0.061"
         fill="#f8fdf3"
         d="m 199.5,236.5 c 0.709,-0.904 1.709,-1.237 3,-1 0,3.667 0,7.333 0,11 4.667,0 9.333,0 14,0 -4.805,0.987 -9.805,1.321 -15,1 0.58,-4.149 -0.086,-7.816 -2,-11 z"
         id="path64" />
    </g>
    <g
       id="g66"
       style="clip-rule:evenodd;fill-rule:evenodd;image-rendering:optimizeQuality;shape-rendering:geometricPrecision;text-rendering:geometricPrecision"
       transform="matrix(0.26458333,0,0,0.26458333,37.377825,76.918806)">
      <path
         style="opacity:0.356"
         fill="#e5f9d4"
         d="m 281.5,241.5 c -2.488,1.888 -5.488,2.555 -9,2 0,1 0,2 0,3 2.885,-0.306 5.552,0.027 8,1 -3,0 -6,0 -9,0 0,-2 0,-4 0,-6 3.333,0 6.667,0 10,0 z"
         id="path65" />
    </g>
    <g
       id="g67"
       style="clip-rule:evenodd;fill-rule:evenodd;image-rendering:optimizeQuality;shape-rendering:geometricPrecision;text-rendering:geometricPrecision"
       transform="matrix(0.26458333,0,0,0.26458333,37.377825,76.918806)">
      <path
         style="opacity:0.416"
         fill="#e3f9d0"
         d="m 371.5,244.5 c 0.073,1.527 -0.594,2.527 -2,3 -0.073,-1.527 0.594,-2.527 2,-3 z"
         id="path66" />
    </g>
    <g
       id="g68"
       style="clip-rule:evenodd;fill-rule:evenodd;image-rendering:optimizeQuality;shape-rendering:geometricPrecision;text-rendering:geometricPrecision"
       transform="matrix(0.26458333,0,0,0.26458333,37.377825,76.918806)">
      <path
         style="opacity:0.00400002"
         fill="#f3fceb"
         d="m 406.5,245.5 c 0.06,-0.543 0.393,-0.876 1,-1 0.886,0.825 1.219,1.825 1,3 -0.667,-0.667 -1.333,-1.333 -2,-2 z"
         id="path67" />
    </g>
    <g
       id="g69"
       style="clip-rule:evenodd;fill-rule:evenodd;image-rendering:optimizeQuality;shape-rendering:geometricPrecision;text-rendering:geometricPrecision"
       transform="matrix(0.26458333,0,0,0.26458333,37.377825,76.918806)">
      <path
         style="opacity:0.248"
         fill="#e9fadb"
         d="m 16.5,246.5 c 11.2879,0.791 22.6212,1.291 34,1.5 1.2101,1.039 2.2101,2.206 3,3.5 -1.6958,-0.185 -3.0291,-1.019 -4,-2.5 -10.6667,-0.333 -21.3333,-0.667 -32,-1 -0.556,-0.383 -0.8893,-0.883 -1,-1.5 z"
         id="path68" />
    </g>
    <g
       id="g70"
       style="clip-rule:evenodd;fill-rule:evenodd;image-rendering:optimizeQuality;shape-rendering:geometricPrecision;text-rendering:geometricPrecision"
       transform="matrix(0.26458333,0,0,0.26458333,37.377825,76.918806)">
      <path
         style="opacity:0.125"
         fill="#f1fce8"
         d="m 61.5,247.5 c -0.3333,1 -1,1.667 -2,2 0,-1.333 0.6667,-2 2,-2 z"
         id="path69" />
    </g>
    <g
       id="g71"
       style="clip-rule:evenodd;fill-rule:evenodd;image-rendering:optimizeQuality;shape-rendering:geometricPrecision;text-rendering:geometricPrecision"
       transform="matrix(0.26458333,0,0,0.26458333,37.377825,76.918806)">
      <path
         style="opacity:0.523"
         fill="#e1f8cd"
         d="m 298.5,242.5 c 2.517,1.577 2.517,3.41 0,5.5 -1.973,0.495 -3.973,0.662 -6,0.5 0,-2.333 0,-4.667 0,-7 2.235,-0.295 4.235,0.039 6,1 z m 0,0 c -1.667,0 -3.333,0 -5,0 0,1.333 0,2.667 0,4 1.699,0.16 3.366,-0.006 5,-0.5 1.184,-1.145 1.184,-2.312 0,-3.5 z"
         id="path70" />
    </g>
    <g
       id="g72"
       style="clip-rule:evenodd;fill-rule:evenodd;image-rendering:optimizeQuality;shape-rendering:geometricPrecision;text-rendering:geometricPrecision"
       transform="matrix(0.26458333,0,0,0.26458333,37.377825,76.918806)">
      <path
         style="opacity:0.531"
         fill="#def8c7"
         d="m 85.5,245.5 c 0,1 0,2 0,3 2.5101,-0.446 4.5101,0.22 6,2 -2.2522,-0.833 -4.4189,-0.833 -6.5,0 -1.9319,-1.893 -1.7652,-3.56 0.5,-5 z"
         id="path71" />
    </g>
    <g
       id="g73"
       style="clip-rule:evenodd;fill-rule:evenodd;image-rendering:optimizeQuality;shape-rendering:geometricPrecision;text-rendering:geometricPrecision"
       transform="matrix(0.26458333,0,0,0.26458333,37.377825,76.918806)">
      <path
         style="opacity:0.687"
         fill="#c5f39f"
         d="m 419.5,294.5 c 1.323,-15.098 1.323,-30.098 0,-45 -0.131,-0.876 0.202,-1.543 1,-2 0.333,7.833 0.667,15.667 1,23.5 -0.002,8.196 -0.669,16.03 -2,23.5 z"
         id="path72" />
    </g>
    <g
       id="g74"
       style="clip-rule:evenodd;fill-rule:evenodd;image-rendering:optimizeQuality;shape-rendering:geometricPrecision;text-rendering:geometricPrecision"
       transform="matrix(0.26458333,0,0,0.26458333,37.377825,76.918806)">
      <path
         style="opacity:0.263"
         fill="#e7fad8"
         d="m 345.5,252.5 c -0.617,-0.111 -1.117,-0.444 -1.5,-1 -0.179,3.525 -0.679,6.859 -1.5,10 -0.166,-4.346 10e-4,-8.679 0.5,-13 1.481,0.971 2.315,2.304 2.5,4 z"
         id="path73" />
    </g>
    <g
       id="g75"
       style="clip-rule:evenodd;fill-rule:evenodd;image-rendering:optimizeQuality;shape-rendering:geometricPrecision;text-rendering:geometricPrecision"
       transform="matrix(0.26458333,0,0,0.26458333,37.377825,76.918806)">
      <path
         style="opacity:0.132"
         fill="#f4fded"
         d="m 202.5,249.5 c 0,4 0,8 0,12 -1.291,0.237 -2.291,-0.096 -3,-1 1.625,-3.391 2.625,-7.058 3,-11 z"
         id="path74" />
    </g>
    <g
       id="g76"
       style="clip-rule:evenodd;fill-rule:evenodd;image-rendering:optimizeQuality;shape-rendering:geometricPrecision;text-rendering:geometricPrecision"
       transform="matrix(0.26458333,0,0,0.26458333,37.377825,76.918806)">
      <path
         style="opacity:0.00400002"
         fill="#e9fad9"
         d="m 419.5,249.5 c -0.111,0.617 -0.444,1.117 -1,1.5 -2.595,0.226 -5.095,0.726 -7.5,1.5 -0.717,-0.544 -1.217,-1.211 -1.5,-2 3.381,0.04 6.714,-0.293 10,-1 z"
         id="path75" />
    </g>
    <g
       id="g77"
       style="clip-rule:evenodd;fill-rule:evenodd;image-rendering:optimizeQuality;shape-rendering:geometricPrecision;text-rendering:geometricPrecision"
       transform="matrix(0.26458333,0,0,0.26458333,37.377825,76.918806)">
      <path
         style="opacity:0.00499998"
         fill="#fcfefb"
         d="m 91.5,250.5 c 0.5431,0.06 0.8764,0.393 1,1 -6.6335,0.997 -13.3002,1.33 -20,1 6.3333,-0.667 12.6667,-1.333 19,-2 z"
         id="path76" />
    </g>
    <g
       id="g78"
       style="clip-rule:evenodd;fill-rule:evenodd;image-rendering:optimizeQuality;shape-rendering:geometricPrecision;text-rendering:geometricPrecision"
       transform="matrix(0.26458333,0,0,0.26458333,37.377825,76.918806)">
      <path
         style="opacity:0.00400002"
         fill="#f8fdf4"
         d="m 186.5,253.5 c 1.101,-1.098 2.434,-1.265 4,-0.5 -0.566,0.995 -1.233,1.828 -2,2.5 0,-1.333 -0.667,-2 -2,-2 z"
         id="path77" />
    </g>
    <g
       id="g79"
       style="clip-rule:evenodd;fill-rule:evenodd;image-rendering:optimizeQuality;shape-rendering:geometricPrecision;text-rendering:geometricPrecision"
       transform="matrix(0.26458333,0,0,0.26458333,37.377825,76.918806)">
      <path
         style="opacity:0.906"
         fill="#d9f7bf"
         d="m 345.5,252.5 c 1.946,0.535 2.946,1.868 3,4 -1.474,-0.936 -2.474,-2.27 -3,-4 z"
         id="path78" />
    </g>
    <g
       id="g80"
       style="clip-rule:evenodd;fill-rule:evenodd;image-rendering:optimizeQuality;shape-rendering:geometricPrecision;text-rendering:geometricPrecision"
       transform="matrix(0.26458333,0,0,0.26458333,37.377825,76.918806)">
      <path
         style="opacity:0.00799997"
         fill="#fcfefa"
         d="m 376.5,250.5 c 0.086,0.996 -0.248,1.829 -1,2.5 2.865,0.183 5.531,0.683 8,1.5 -3.542,0.313 -6.875,-0.021 -10,-1 0.772,-1.194 1.772,-2.194 3,-3 z"
         id="path79" />
    </g>
    <g
       id="g81"
       style="clip-rule:evenodd;fill-rule:evenodd;image-rendering:optimizeQuality;shape-rendering:geometricPrecision;text-rendering:geometricPrecision"
       transform="matrix(0.26458333,0,0,0.26458333,37.377825,76.918806)">
      <path
         style="opacity:0.559"
         fill="#e2f9ce"
         d="m 393.5,250.5 c 0.617,0.111 1.117,0.444 1.5,1 0.498,3.317 0.665,6.65 0.5,10 2.333,0 4.667,0 7,0 -2.448,0.973 -5.115,1.306 -8,1 0.193,-4.066 -0.14,-8.066 -1,-12 z"
         id="path80" />
    </g>
    <g
       id="g82"
       style="clip-rule:evenodd;fill-rule:evenodd;image-rendering:optimizeQuality;shape-rendering:geometricPrecision;text-rendering:geometricPrecision"
       transform="matrix(0.26458333,0,0,0.26458333,37.377825,76.918806)">
      <path
         style="opacity:0.192"
         fill="#effce6"
         d="m 280.5,253.5 c -2.448,0.973 -5.115,1.306 -8,1 0.302,2.559 -0.032,4.893 -1,7 0,-2.667 0,-5.333 0,-8 3,0 6,0 9,0 z"
         id="path81" />
    </g>
    <g
       id="g83"
       style="clip-rule:evenodd;fill-rule:evenodd;image-rendering:optimizeQuality;shape-rendering:geometricPrecision;text-rendering:geometricPrecision"
       transform="matrix(0.26458333,0,0,0.26458333,37.377825,76.918806)">
      <path
         style="opacity:0.627"
         fill="#d5f6ba"
         d="m 296.5,256.5 c -0.722,-0.418 -1.222,-1.084 -1.5,-2 -0.333,0.333 -0.667,0.667 -1,1 -0.191,2.208 -0.691,4.208 -1.5,6 -0.163,-2.357 0.003,-4.69 0.5,-7 1.011,-0.837 2.178,-1.17 3.5,-1 0,1 0,2 0,3 z"
         id="path82" />
    </g>
    <g
       id="g84"
       style="clip-rule:evenodd;fill-rule:evenodd;image-rendering:optimizeQuality;shape-rendering:geometricPrecision;text-rendering:geometricPrecision"
       transform="matrix(0.26458333,0,0,0.26458333,37.377825,76.918806)">
      <path
         style="opacity:0.208"
         fill="#e9fada"
         d="m 304.5,252.5 c 0.61,0.891 0.943,1.891 1,3 -1.882,-0.721 -2.215,-1.721 -1,-3 z"
         id="path83" />
    </g>
    <g
       id="g85"
       style="clip-rule:evenodd;fill-rule:evenodd;image-rendering:optimizeQuality;shape-rendering:geometricPrecision;text-rendering:geometricPrecision"
       transform="matrix(0.26458333,0,0,0.26458333,37.377825,76.918806)">
      <path
         style="opacity:0.187"
         fill="#edfbe1"
         d="m 329.5,251.5 c 0,0.333 0,0.667 0,1 1.44,1.446 2.107,3.279 2,5.5 -0.014,1.385 -0.348,2.551 -1,3.5 0,-2 0,-4 0,-6 -3.667,0 -7.333,0 -11,0 0,-1.333 0,-2.667 0,-4 3.333,0 6.667,0 10,0 z m 0,1 c -1.014,1.265 -2.514,1.931 -4.5,2 -1.5,-0.333 -3,-0.667 -4.5,-1 2.928,-0.984 5.928,-1.317 9,-1 z"
         id="path84" />
    </g>
    <g
       id="g86"
       style="clip-rule:evenodd;fill-rule:evenodd;image-rendering:optimizeQuality;shape-rendering:geometricPrecision;text-rendering:geometricPrecision"
       transform="matrix(0.26458333,0,0,0.26458333,37.377825,76.918806)">
      <path
         style="opacity:0.71"
         fill="#caf4a7"
         d="m 373.5,253.5 c 3.125,0.979 6.458,1.313 10,1 1.333,2.333 1.333,4.667 0,7 0,-2 0,-4 0,-6 -3.726,0.323 -7.393,-0.011 -11,-1 0.124,-0.607 0.457,-0.94 1,-1 z"
         id="path85" />
    </g>
    <g
       id="g87"
       style="clip-rule:evenodd;fill-rule:evenodd;image-rendering:optimizeQuality;shape-rendering:geometricPrecision;text-rendering:geometricPrecision"
       transform="matrix(0.26458333,0,0,0.26458333,37.377825,76.918806)">
      <path
         style="opacity:0.769"
         fill="#d8f7be"
         d="m 59.5,252.5 c 0.5221,1.719 1.5221,3.052 3,4 -0.5256,1.73 -1.5256,3.064 -3,4 0.1085,-2.014 -0.5582,-3.68 -2,-5 1.5481,-0.321 2.2148,-1.321 2,-3 z"
         id="path86" />
    </g>
    <g
       id="g88"
       style="clip-rule:evenodd;fill-rule:evenodd;image-rendering:optimizeQuality;shape-rendering:geometricPrecision;text-rendering:geometricPrecision"
       transform="matrix(0.26458333,0,0,0.26458333,37.377825,76.918806)">
      <path
         style="opacity:0.686"
         fill="#dcf7c5"
         d="m 65.5,254.5 c -0.4731,1.406 -1.4731,2.073 -3,2 0.4731,-1.406 1.4731,-2.073 3,-2 z"
         id="path87" />
    </g>
    <g
       id="g89"
       style="clip-rule:evenodd;fill-rule:evenodd;image-rendering:optimizeQuality;shape-rendering:geometricPrecision;text-rendering:geometricPrecision"
       transform="matrix(0.26458333,0,0,0.26458333,37.377825,76.918806)">
      <path
         style="opacity:0.804"
         fill="#def8c6"
         d="m 169.5,255.5 c 1.904,0.238 3.238,1.238 4,3 -1.904,-0.238 -3.238,-1.238 -4,-3 z"
         id="path88" />
    </g>
    <g
       id="g90"
       style="clip-rule:evenodd;fill-rule:evenodd;image-rendering:optimizeQuality;shape-rendering:geometricPrecision;text-rendering:geometricPrecision"
       transform="matrix(0.26458333,0,0,0.26458333,37.377825,76.918806)">
      <path
         style="opacity:0.941"
         fill="#d8f7bd"
         d="m 348.5,256.5 c 1.946,0.535 2.946,1.868 3,4 -1.474,-0.936 -2.474,-2.27 -3,-4 z"
         id="path89" />
    </g>
    <g
       id="g91"
       style="clip-rule:evenodd;fill-rule:evenodd;image-rendering:optimizeQuality;shape-rendering:geometricPrecision;text-rendering:geometricPrecision"
       transform="matrix(0.26458333,0,0,0.26458333,37.377825,76.918806)">
      <path
         style="opacity:0.424"
         fill="#dff8cb"
         d="m 364.5,253.5 c -0.765,2.596 -1.099,5.263 -1,8 -0.652,-0.949 -0.986,-2.115 -1,-3.5 -0.193,-2.008 0.474,-3.508 2,-4.5 z"
         id="path90" />
    </g>
    <g
       id="g92"
       style="clip-rule:evenodd;fill-rule:evenodd;image-rendering:optimizeQuality;shape-rendering:geometricPrecision;text-rendering:geometricPrecision"
       transform="matrix(0.26458333,0,0,0.26458333,37.377825,76.918806)">
      <path
         style="opacity:0.00400002"
         fill="#fafef7"
         d="m 69.5,258.5 c 9,-1.333 18,-1.333 27,0 -1.3734,-0.157 -2.7068,0.01 -4,0.5 1.2375,0.232 2.2375,0.732 3,1.5 -0.7389,-0.131 -1.4056,0.036 -2,0.5 1.6612,3.15 0.6612,4.65 -3,4.5 2.7278,-2.117 2.3944,-3.784 -1,-5 0.1107,-0.617 0.444,-1.117 1,-1.5 -4.5204,-0.814 -8.8537,-0.647 -13,0.5 -1.3333,0 -2.6667,0 -4,0 -1.0676,-0.934 -2.401,-1.268 -4,-1 z"
         id="path91" />
    </g>
    <g
       id="g93"
       style="clip-rule:evenodd;fill-rule:evenodd;image-rendering:optimizeQuality;shape-rendering:geometricPrecision;text-rendering:geometricPrecision"
       transform="matrix(0.26458333,0,0,0.26458333,37.377825,76.918806)">
      <path
         style="opacity:0.278"
         fill="#edfbe1"
         d="m 188.5,255.5 c -0.333,2.333 -1.667,3.667 -4,4 1,-1.667 2.333,-3 4,-4 z"
         id="path92" />
    </g>
    <g
       id="g94"
       style="clip-rule:evenodd;fill-rule:evenodd;image-rendering:optimizeQuality;shape-rendering:geometricPrecision;text-rendering:geometricPrecision"
       transform="matrix(0.26458333,0,0,0.26458333,37.377825,76.918806)">
      <path
         style="opacity:0.00499998"
         fill="#fefffe"
         d="m 143.5,258.5 c 4.333,0 8.667,0 13,0 0,1 0,2 0,3 -5.526,0.321 -10.86,-0.012 -16,-1 5.011,0.166 10.011,-10e-4 15,-0.5 -4.188,-0.176 -8.188,-0.676 -12,-1.5 z"
         id="path93" />
    </g>
    <g
       id="g95"
       style="clip-rule:evenodd;fill-rule:evenodd;image-rendering:optimizeQuality;shape-rendering:geometricPrecision;text-rendering:geometricPrecision"
       transform="matrix(0.26458333,0,0,0.26458333,37.377825,76.918806)">
      <path
         style="opacity:0.997"
         fill="#b1ef7e"
         d="m 47.5,260.5 c 0.3333,1 1,1.667 2,2 2.4994,3.215 2.166,6.215 -1,9 -1,0.333 -1.6667,1 -2,2 -0.891,0.61 -1.891,0.943 -3,1 -3,0 -6,0 -9,0 -0.9916,0.172 -1.6583,-0.162 -2,-1 -0.4731,-1.406 -1.4731,-2.073 -3,-2 -1.1631,-8.355 2.6702,-12.689 11.5,-13 2.5437,-0.164 4.7103,0.503 6.5,2 z"
         id="path94" />
    </g>
    <g
       id="g96"
       style="clip-rule:evenodd;fill-rule:evenodd;image-rendering:optimizeQuality;shape-rendering:geometricPrecision;text-rendering:geometricPrecision"
       transform="matrix(0.26458333,0,0,0.26458333,37.377825,76.918806)">
      <path
         style="opacity:0.00400002"
         fill="#f2fcea"
         d="m 47.5,260.5 c 1.3333,0 2,0.667 2,2 -1,-0.333 -1.6667,-1 -2,-2 z"
         id="path95" />
    </g>
    <g
       id="g97"
       style="clip-rule:evenodd;fill-rule:evenodd;image-rendering:optimizeQuality;shape-rendering:geometricPrecision;text-rendering:geometricPrecision"
       transform="matrix(0.26458333,0,0,0.26458333,37.377825,76.918806)">
      <path
         style="opacity:0.536"
         fill="#d6f6bc"
         d="m 68.5,259.5 c -0.4661,3.662 0.2006,6.995 2,10 -0.9959,0.086 -1.8292,-0.248 -2.5,-1 -0.8045,-3.196 -0.6378,-6.196 0.5,-9 z"
         id="path96" />
    </g>
    <g
       id="g98"
       style="clip-rule:evenodd;fill-rule:evenodd;image-rendering:optimizeQuality;shape-rendering:geometricPrecision;text-rendering:geometricPrecision"
       transform="matrix(0.26458333,0,0,0.26458333,37.377825,76.918806)">
      <path
         style="opacity:0.545"
         fill="#d1f5b4"
         d="m 95.5,260.5 c 1.3458,2.292 1.0124,4.292 -1,6 -1.599,0.268 -2.9324,-0.066 -4,-1 3.6612,0.15 4.6612,-1.35 3,-4.5 0.5944,-0.464 1.2611,-0.631 2,-0.5 z"
         id="path97" />
    </g>
    <g
       id="g99"
       style="clip-rule:evenodd;fill-rule:evenodd;image-rendering:optimizeQuality;shape-rendering:geometricPrecision;text-rendering:geometricPrecision"
       transform="matrix(0.26458333,0,0,0.26458333,37.377825,76.918806)">
      <path
         style="opacity:0.00400002"
         fill="#f5fdee"
         d="m 96.5,258.5 c 1.6765,0.683 2.3432,2.017 2,4 -0.8446,-1.171 -1.5113,-2.505 -2,-4 z"
         id="path98" />
    </g>
    <g
       id="g100"
       style="clip-rule:evenodd;fill-rule:evenodd;image-rendering:optimizeQuality;shape-rendering:geometricPrecision;text-rendering:geometricPrecision"
       transform="matrix(0.26458333,0,0,0.26458333,37.377825,76.918806)">
      <path
         style="opacity:0.98"
         fill="#bcf192"
         d="m 73.5,259.5 c 1.3333,0 2.6667,0 4,0 0.6667,0 1,0.333 1,1 -1.0519,0.271 -2.3853,0.438 -4,0.5 0.9158,0.278 1.5825,0.778 2,1.5 0,0.333 0,0.667 0,1 -1.1246,0.514 -2.2913,0.847 -3.5,1 -0.49,-1.293 -0.6567,-2.627 -0.5,-4 0,-0.667 0.3333,-1 1,-1 z"
         id="path99" />
    </g>
    <g
       id="g101"
       style="clip-rule:evenodd;fill-rule:evenodd;image-rendering:optimizeQuality;shape-rendering:geometricPrecision;text-rendering:geometricPrecision"
       transform="matrix(0.26458333,0,0,0.26458333,37.377825,76.918806)">
      <path
         style="opacity:0.616"
         fill="#ccf4aa"
         d="m 89.5,260.5 c 3.3944,1.216 3.7278,2.883 1,5 -0.3333,0 -0.6667,0 -1,0 -2.6667,-1.667 -2.6667,-3.333 0,-5 z"
         id="path100" />
    </g>
    <g
       id="g102"
       style="clip-rule:evenodd;fill-rule:evenodd;image-rendering:optimizeQuality;shape-rendering:geometricPrecision;text-rendering:geometricPrecision"
       transform="matrix(0.26458333,0,0,0.26458333,37.377825,76.918806)">
      <path
         style="opacity:0.555"
         fill="#cef4af"
         d="m 172.5,260.5 c 2.627,0.592 5.294,0.925 8,1 -2.84,1.417 -5.507,1.084 -8,-1 z"
         id="path101" />
    </g>
    <g
       id="g103"
       style="clip-rule:evenodd;fill-rule:evenodd;image-rendering:optimizeQuality;shape-rendering:geometricPrecision;text-rendering:geometricPrecision"
       transform="matrix(0.26458333,0,0,0.26458333,37.377825,76.918806)">
      <path
         style="opacity:0.294"
         fill="#edfbe0"
         d="m 71.5,260.5 c 0.3333,0 0.6667,0 1,0 -0.1567,1.373 0.01,2.707 0.5,4 1.2087,-0.153 2.3754,-0.486 3.5,-1 1.3333,-0.333 1.3333,-0.667 0,-1 -0.4175,-0.722 -1.0842,-1.222 -2,-1.5 1.6147,-0.062 2.9481,-0.229 4,-0.5 1.1129,1.446 1.2796,3.113 0.5,5 -5.3623,3.171 -7.8623,1.504 -7.5,-5 z"
         id="path102" />
    </g>
    <g
       id="g104"
       style="clip-rule:evenodd;fill-rule:evenodd;image-rendering:optimizeQuality;shape-rendering:geometricPrecision;text-rendering:geometricPrecision"
       transform="matrix(0.26458333,0,0,0.26458333,37.377825,76.918806)">
      <path
         style="opacity:0.00400002"
         fill="#fbfef9"
         d="m 108.5,264.5 c 0.709,-0.904 1.709,-1.237 3,-1 0.317,4.202 -0.017,8.202 -1,12 0.58,-4.149 -0.086,-7.816 -2,-11 z"
         id="path103" />
    </g>
    <g
       id="g105"
       style="clip-rule:evenodd;fill-rule:evenodd;image-rendering:optimizeQuality;shape-rendering:geometricPrecision;text-rendering:geometricPrecision"
       transform="matrix(0.26458333,0,0,0.26458333,37.377825,76.918806)">
      <path
         style="opacity:0.00499998"
         fill="#fdfefc"
         d="m 89.5,265.5 c 0.3333,0 0.6667,0 1,0 1.0676,0.934 2.401,1.268 4,1 -0.5968,0.639 -1.4302,0.972 -2.5,1 -1.3756,-0.184 -2.2089,-0.851 -2.5,-2 z"
         id="path104" />
    </g>
    <g
       id="g106"
       style="clip-rule:evenodd;fill-rule:evenodd;image-rendering:optimizeQuality;shape-rendering:geometricPrecision;text-rendering:geometricPrecision"
       transform="matrix(0.26458333,0,0,0.26458333,37.377825,76.918806)">
      <path
         style="opacity:0.235"
         fill="#edfbe1"
         d="m 108.5,267.5 c 0.667,2.667 1.333,5.333 2,8 -0.06,0.543 -0.393,0.876 -1,1 -0.984,-2.928 -1.317,-5.928 -1,-9 z"
         id="path105" />
    </g>
    <g
       id="g107"
       style="clip-rule:evenodd;fill-rule:evenodd;image-rendering:optimizeQuality;shape-rendering:geometricPrecision;text-rendering:geometricPrecision"
       transform="matrix(0.26458333,0,0,0.26458333,37.377825,76.918806)">
      <path
         style="opacity:0.521"
         fill="#d6f6bd"
         d="m 96.5,269.5 c -8.6667,1.333 -17.3333,1.333 -26,0 8.591,-0.254 17.2577,-0.254 26,0 z"
         id="path106" />
    </g>
    <g
       id="g108"
       style="clip-rule:evenodd;fill-rule:evenodd;image-rendering:optimizeQuality;shape-rendering:geometricPrecision;text-rendering:geometricPrecision"
       transform="matrix(0.26458333,0,0,0.26458333,37.377825,76.918806)">
      <path
         style="opacity:0.631"
         fill="#e1f9cb"
         d="m 29.5,271.5 c 1.5269,-0.073 2.5269,0.594 3,2 -1.5269,0.073 -2.5269,-0.594 -3,-2 z"
         id="path107" />
    </g>
    <g
       id="g109"
       style="clip-rule:evenodd;fill-rule:evenodd;image-rendering:optimizeQuality;shape-rendering:geometricPrecision;text-rendering:geometricPrecision"
       transform="matrix(0.26458333,0,0,0.26458333,37.377825,76.918806)">
      <path
         style="opacity:0.063"
         fill="#edfbe1"
         d="m 48.5,271.5 c 0.6098,0.891 0.9431,1.891 1,3 -0.6667,0 -1.3333,0 -2,0 0,-0.667 -0.3333,-1 -1,-1 0.3333,-1 1,-1.667 2,-2 z"
         id="path108" />
    </g>
    <g
       id="g110"
       style="clip-rule:evenodd;fill-rule:evenodd;image-rendering:optimizeQuality;shape-rendering:geometricPrecision;text-rendering:geometricPrecision"
       transform="matrix(0.26458333,0,0,0.26458333,37.377825,76.918806)">
      <path
         style="opacity:0.184"
         fill="#ecfbdf"
         d="m 76.5,274.5 c -0.6667,0 -1.3333,0 -2,0 -1.025,-0.397 -1.1917,-1.063 -0.5,-2 0.9947,0.566 1.828,1.233 2.5,2 z"
         id="path109" />
    </g>
    <g
       id="g111"
       style="clip-rule:evenodd;fill-rule:evenodd;image-rendering:optimizeQuality;shape-rendering:geometricPrecision;text-rendering:geometricPrecision"
       transform="matrix(0.26458333,0,0,0.26458333,37.377825,76.918806)">
      <path
         style="opacity:0.247"
         fill="#eafbdc"
         d="m 34.5,274.5 c 3,0 6,0 9,0 -1.7922,0.809 -3.7922,1.309 -6,1.5 0.556,0.383 0.8893,0.883 1,1.5 -0.8382,0.342 -1.1716,1.008 -1,2 -0.8077,-1.72 -1.8077,-3.387 -3,-5 z"
         id="path110" />
    </g>
    <g
       id="g112"
       style="clip-rule:evenodd;fill-rule:evenodd;image-rendering:optimizeQuality;shape-rendering:geometricPrecision;text-rendering:geometricPrecision"
       transform="matrix(0.26458333,0,0,0.26458333,37.377825,76.918806)">
      <path
         style="opacity:0.997"
         fill="#b0ee7d"
         d="m 47.5,274.5 c 0.6667,0 1.3333,0 2,0 0.8382,0.342 1.1716,1.008 1,2 -0.073,1.527 0.5937,2.527 2,3 1.3333,1 2.6667,2 4,3 0.3212,1.548 1.3212,2.215 3,2 0.9916,-0.172 1.6583,0.162 2,1 1.4516,0.802 3.1183,1.302 5,1.5 -0.556,0.383 -0.8893,0.883 -1,1.5 -3.4078,3.819 -6.5745,7.819 -9.5,12 -2.6339,-0.726 -4.8005,-2.059 -6.5,-4 -0.4731,-1.406 -1.4731,-2.073 -3,-2 -4.7748,-3.874 -7.7748,-8.874 -9,-15 -0.1716,-0.992 0.1618,-1.658 1,-2 3.6125,0.576 6.6125,-0.424 9,-3 z"
         id="path111" />
    </g>
    <g
       id="g113"
       style="clip-rule:evenodd;fill-rule:evenodd;image-rendering:optimizeQuality;shape-rendering:geometricPrecision;text-rendering:geometricPrecision"
       transform="matrix(0.26458333,0,0,0.26458333,37.377825,76.918806)">
      <path
         style="opacity:0.824"
         fill="#d1f5b2"
         d="m 88.5,278.5 c 1.425,-1.422 2.425,-3.089 3,-5 1.112,-0.014 1.2787,0.986 0.5,3 -0.8159,1.323 -1.9826,1.989 -3.5,2 z"
         id="path112" />
    </g>
    <g
       id="g114"
       style="clip-rule:evenodd;fill-rule:evenodd;image-rendering:optimizeQuality;shape-rendering:geometricPrecision;text-rendering:geometricPrecision"
       transform="matrix(0.26458333,0,0,0.26458333,37.377825,76.918806)">
      <path
         style="opacity:0.451"
         fill="#def8c8"
         d="m 50.5,276.5 c 1.4063,0.473 2.073,1.473 2,3 -1.4063,-0.473 -2.073,-1.473 -2,-3 z"
         id="path113" />
    </g>
    <g
       id="g115"
       style="clip-rule:evenodd;fill-rule:evenodd;image-rendering:optimizeQuality;shape-rendering:geometricPrecision;text-rendering:geometricPrecision"
       transform="matrix(0.26458333,0,0,0.26458333,37.377825,76.918806)">
      <path
         style="opacity:0.00400002"
         fill="#eefbe3"
         d="m 58.5,278.5 c 1.3333,0.667 2.3333,1.667 3,3 -2,0 -3,-1 -3,-3 z"
         id="path114" />
    </g>
    <g
       id="g116"
       style="clip-rule:evenodd;fill-rule:evenodd;image-rendering:optimizeQuality;shape-rendering:geometricPrecision;text-rendering:geometricPrecision"
       transform="matrix(0.26458333,0,0,0.26458333,37.377825,76.918806)">
      <path
         style="opacity:0.894"
         fill="#d2f5b4"
         d="m 88.5,278.5 c -0.1107,0.617 -0.444,1.117 -1,1.5 -2.867,0.801 -5.5336,0.634 -8,-0.5 3.0701,0.132 6.0701,-0.201 9,-1 z"
         id="path115" />
    </g>
    <g
       id="g117"
       style="clip-rule:evenodd;fill-rule:evenodd;image-rendering:optimizeQuality;shape-rendering:geometricPrecision;text-rendering:geometricPrecision"
       transform="matrix(0.26458333,0,0,0.26458333,37.377825,76.918806)">
      <path
         style="opacity:0.247"
         fill="#e9fbdb"
         d="m 61.5,281.5 c 10.6667,0 21.3333,0 32,0 0,1 0,2 0,3 -10.5909,-1.619 -21.2576,-2.619 -32,-3 z"
         id="path116" />
    </g>
    <g
       id="g118"
       style="clip-rule:evenodd;fill-rule:evenodd;image-rendering:optimizeQuality;shape-rendering:geometricPrecision;text-rendering:geometricPrecision"
       transform="matrix(0.26458333,0,0,0.26458333,37.377825,76.918806)">
      <path
         style="opacity:0.00400002"
         fill="#edfbe0"
         d="m 56.5,282.5 c 1.2095,0.432 2.2095,1.099 3,2 -1.6788,0.215 -2.6788,-0.452 -3,-2 z"
         id="path117" />
    </g>
    <g
       id="g119"
       style="clip-rule:evenodd;fill-rule:evenodd;image-rendering:optimizeQuality;shape-rendering:geometricPrecision;text-rendering:geometricPrecision"
       transform="matrix(0.26458333,0,0,0.26458333,37.377825,76.918806)">
      <path
         style="opacity:0.082"
         fill="#effce5"
         d="m 71.5,284.5 c 0.3966,-1.025 1.0632,-1.192 2,-0.5 -0.5944,0.464 -1.2611,0.631 -2,0.5 z"
         id="path118" />
    </g>
    <g
       id="g120"
       style="clip-rule:evenodd;fill-rule:evenodd;image-rendering:optimizeQuality;shape-rendering:geometricPrecision;text-rendering:geometricPrecision"
       transform="matrix(0.26458333,0,0,0.26458333,37.377825,76.918806)">
      <path
         style="opacity:0.024"
         fill="#f4fdee"
         d="m 71.5,284.5 c -0.6667,0.667 -0.6667,0.667 0,0 z"
         id="path119" />
    </g>
    <g
       id="g121"
       style="clip-rule:evenodd;fill-rule:evenodd;image-rendering:optimizeQuality;shape-rendering:geometricPrecision;text-rendering:geometricPrecision"
       transform="matrix(0.26458333,0,0,0.26458333,37.377825,76.918806)">
      <path
         style="opacity:0.267"
         fill="#eafbdd"
         d="m 61.5,285.5 c 2.6873,-0.164 5.354,0.003 8,0.5 -0.9709,1.481 -2.3042,2.315 -4,2.5 0.1107,-0.617 0.444,-1.117 1,-1.5 -1.8817,-0.198 -3.5484,-0.698 -5,-1.5 z"
         id="path120" />
    </g>
    <g
       id="g122"
       style="clip-rule:evenodd;fill-rule:evenodd;image-rendering:optimizeQuality;shape-rendering:geometricPrecision;text-rendering:geometricPrecision"
       transform="matrix(0.26458333,0,0,0.26458333,37.377825,76.918806)">
      <path
         style="opacity:0.247"
         fill="#e7f9d7"
         d="m 96.5,285.5 c 1.5269,-0.073 2.5269,0.594 3,2 -1.5269,0.073 -2.5269,-0.594 -3,-2 z"
         id="path121" />
    </g>
    <g
       id="g123"
       style="clip-rule:evenodd;fill-rule:evenodd;image-rendering:optimizeQuality;shape-rendering:geometricPrecision;text-rendering:geometricPrecision"
       transform="matrix(0.26458333,0,0,0.26458333,37.377825,76.918806)">
      <path
         style="opacity:0.69"
         fill="#dcf7c4"
         d="m 46.5,294.5 c 1.5269,-0.073 2.5269,0.594 3,2 -1.5269,0.073 -2.5269,-0.594 -3,-2 z"
         id="path122" />
    </g>
    <g
       id="g124"
       style="clip-rule:evenodd;fill-rule:evenodd;image-rendering:optimizeQuality;shape-rendering:geometricPrecision;text-rendering:geometricPrecision"
       transform="matrix(0.26458333,0,0,0.26458333,37.377825,76.918806)">
      <path
         style="opacity:0.57"
         fill="#e3f9d0"
         d="m 103.5,295.5 c -14.0787,-0.315 -28.0787,0.018 -42,1 0.0774,-1.25 0.744,-2.083 2,-2.5 5.5,-0.167 11,-0.333 16.5,-0.5 8.0602,-0.193 15.8935,0.473 23.5,2 z"
         id="path123" />
    </g>
    <g
       id="g125"
       style="clip-rule:evenodd;fill-rule:evenodd;image-rendering:optimizeQuality;shape-rendering:geometricPrecision;text-rendering:geometricPrecision"
       transform="matrix(0.26458333,0,0,0.26458333,37.377825,76.918806)">
      <path
         style="opacity:0.996"
         fill="#b5ef85"
         d="m 103.5,295.5 c 1.29,0.558 2.123,1.558 2.5,3 0.851,5.753 0.517,11.42 -1,17 -1.067,0.691 -2.234,1.191 -3.5,1.5 -12.3333,0.667 -24.6667,0.667 -37,0 -4.4076,-2.721 -5.741,-6.555 -4,-11.5 -0.1323,-3.07 0.201,-6.07 1,-9 13.9213,-0.982 27.9213,-1.315 42,-1 z m -36,9 c -1.5269,0.073 -2.5269,-0.594 -3,-2 1.6227,-0.991 2.6227,-0.324 3,2 z m 6,0 c -0.6667,-0.333 -1.3333,-0.667 -2,-1 0.7376,-2.26 1.7376,-2.427 3,-0.5 -0.556,0.383 -0.8893,0.883 -1,1.5 z m 12,-3 c 1.9646,0.448 2.2979,1.448 1,3 -2.0193,-0.633 -2.3526,-1.633 -1,-3 z m 8,3 c -0.6667,-0.333 -1.3333,-0.667 -2,-1 0.7376,-2.26 1.7376,-2.427 3,-0.5 -0.556,0.383 -0.8893,0.883 -1,1.5 z m 8,-3 c -0.057,1.109 -0.39,2.109 -1,3 -2.8382,-1.806 -2.5048,-2.806 1,-3 z m -21,3 c -0.6667,0 -1.3333,0 -2,0 0.24,-2.793 1.24,-3.293 3,-1.5 -0.556,0.383 -0.8893,0.883 -1,1.5 z m -16,3 c 3.7861,1.195 3.7861,1.862 0,2 0,-0.667 0,-1.333 0,-2 z m 7,0 c 1.175,-0.219 2.175,0.114 3,1 -1.5517,1.298 -2.5517,0.965 -3,-1 z m 7,0 c 1.5269,-0.073 2.5269,0.594 3,2 -1.6788,0.215 -2.6788,-0.452 -3,-2 z m 7,0 c 2.6667,0.667 2.6667,1.333 0,2 -1.0063,-0.438 -1.0063,-1.104 0,-2 z m 6,0 c 1.175,-0.219 2.175,0.114 3,1 -1.5517,1.298 -2.5517,0.965 -3,-1 z m 7,0 c 1.175,-0.219 2.175,0.114 3,1 -1.5517,1.298 -2.5517,0.965 -3,-1 z"
         id="path124" />
    </g>
    <g
       id="g126"
       style="clip-rule:evenodd;fill-rule:evenodd;image-rendering:optimizeQuality;shape-rendering:geometricPrecision;text-rendering:geometricPrecision"
       transform="matrix(0.26458333,0,0,0.26458333,37.377825,76.918806)">
      <path
         style="opacity:0.00400002"
         fill="#fafef7"
         d="m 61.5,296.5 c -0.799,2.93 -1.1323,5.93 -1,9 -1.1341,-2.466 -1.3007,-5.133 -0.5,-8 0.3826,-0.556 0.8826,-0.889 1.5,-1 z"
         id="path125" />
    </g>
    <g
       id="g127"
       style="clip-rule:evenodd;fill-rule:evenodd;image-rendering:optimizeQuality;shape-rendering:geometricPrecision;text-rendering:geometricPrecision"
       transform="matrix(0.26458333,0,0,0.26458333,37.377825,76.918806)">
      <path
         style="opacity:0.192"
         fill="#e9fadb"
         d="m 73.5,304.5 c 0.1107,-0.617 0.444,-1.117 1,-1.5 -1.2624,-1.927 -2.2624,-1.76 -3,0.5 -1.2736,-0.689 -1.2736,-1.523 0,-2.5 2.1073,-0.854 3.4407,-0.188 4,2 -0.3361,1.03 -1.0028,1.53 -2,1.5 z"
         id="path126" />
    </g>
    <g
       id="g128"
       style="clip-rule:evenodd;fill-rule:evenodd;image-rendering:optimizeQuality;shape-rendering:geometricPrecision;text-rendering:geometricPrecision"
       transform="matrix(0.26458333,0,0,0.26458333,37.377825,76.918806)">
      <path
         style="opacity:0.188"
         fill="#e9fadb"
         d="m 93.5,304.5 c 0.1107,-0.617 0.444,-1.117 1,-1.5 -1.2624,-1.927 -2.2624,-1.76 -3,0.5 -1.2736,-0.689 -1.2736,-1.523 0,-2.5 2.1073,-0.854 3.4407,-0.188 4,2 -0.3361,1.03 -1.0028,1.53 -2,1.5 z"
         id="path127" />
    </g>
    <g
       id="g129"
       style="clip-rule:evenodd;fill-rule:evenodd;image-rendering:optimizeQuality;shape-rendering:geometricPrecision;text-rendering:geometricPrecision"
       transform="matrix(0.26458333,0,0,0.26458333,37.377825,76.918806)">
      <path
         style="opacity:0.00499998"
         fill="#f7fdf2"
         d="m 67.5,304.5 c -0.3773,-2.324 -1.3773,-2.991 -3,-2 0.4731,1.406 1.4731,2.073 3,2 z"
         id="path128" />
    </g>
    <g
       id="g130"
       style="clip-rule:evenodd;fill-rule:evenodd;image-rendering:optimizeQuality;shape-rendering:geometricPrecision;text-rendering:geometricPrecision"
       transform="matrix(0.26458333,0,0,0.26458333,37.377825,76.918806)">
      <path
         style="opacity:0.059"
         fill="#e7fad7"
         d="m 80.5,304.5 c 0.1107,-0.617 0.444,-1.117 1,-1.5 -1.76,-1.793 -2.76,-1.293 -3,1.5 -1.4284,-1.877 -0.9284,-3.211 1.5,-4 2.9342,1.244 3.1009,2.578 0.5,4 z m 0,0 c -0.6667,0 -1.3333,0 -2,0 0.24,-2.793 1.24,-3.293 3,-1.5 -0.556,0.383 -0.8893,0.883 -1,1.5 z"
         id="path129" />
    </g>
    <g
       id="g131"
       style="clip-rule:evenodd;fill-rule:evenodd;image-rendering:optimizeQuality;shape-rendering:geometricPrecision;text-rendering:geometricPrecision"
       transform="matrix(0.26458333,0,0,0.26458333,37.377825,76.918806)">
      <path
         style="opacity:0.631"
         fill="#def8c9"
         d="m 101.5,301.5 c 1.385,1.447 1.052,2.447 -1,3 0.61,-0.891 0.943,-1.891 1,-3 z"
         id="path130" />
    </g>
    <g
       id="g132"
       style="clip-rule:evenodd;fill-rule:evenodd;image-rendering:optimizeQuality;shape-rendering:geometricPrecision;text-rendering:geometricPrecision"
       transform="matrix(0.26458333,0,0,0.26458333,37.377825,76.918806)">
      <path
         style="opacity:0.006"
         fill="#f9fef6"
         d="m 64.5,307.5 c 1.0676,-0.934 2.401,-1.268 4,-1 0,1.333 0,2.667 0,4 -1.599,0.268 -2.9324,-0.066 -4,-1 1.0676,0.934 2.401,1.268 4,1 0,-1.333 0,-2.667 0,-4 -1.599,-0.268 -2.9324,0.066 -4,1 z"
         id="path131" />
    </g>
    <g
       id="g133"
       style="clip-rule:evenodd;fill-rule:evenodd;image-rendering:optimizeQuality;shape-rendering:geometricPrecision;text-rendering:geometricPrecision"
       transform="matrix(0.26458333,0,0,0.26458333,37.377825,76.918806)">
      <path
         style="opacity:0.00400002"
         fill="#f2fce9"
         d="m 78.5,307.5 c 0.7506,-1.073 1.7506,-1.24 3,-0.5 1.2736,0.977 1.2736,1.811 0,2.5 -0.4731,-1.406 -1.4731,-2.073 -3,-2 z"
         id="path132" />
    </g>
    <g
       id="g134"
       style="clip-rule:evenodd;fill-rule:evenodd;image-rendering:optimizeQuality;shape-rendering:geometricPrecision;text-rendering:geometricPrecision"
       transform="matrix(0.26458333,0,0,0.26458333,37.377825,76.918806)">
      <path
         style="opacity:0.006"
         fill="#f8fdf4"
         d="m 85.5,307.5 c 0.709,-0.904 1.709,-1.237 3,-1 0,1.333 0,2.667 0,4 -1.291,0.237 -2.291,-0.096 -3,-1 2.6667,-0.667 2.6667,-1.333 0,-2 z"
         id="path133" />
    </g>
  </g>
</svg>
