<?xml version="1.0" encoding="UTF-8"?>
<!DOCTYPE svg PUBLIC "-//W3C//DTD SVG 1.1//EN" "http://www.w3.org/Graphics/SVG/1.1/DTD/svg11.dtd">
<svg xmlns="http://www.w3.org/2000/svg" version="1.1" width="500px" height="500px" style="shape-rendering:geometricPrecision; text-rendering:geometricPrecision; image-rendering:optimizeQuality; fill-rule:evenodd; clip-rule:evenodd" xmlns:xlink="http://www.w3.org/1999/xlink">
<g><path style="opacity:0.686" fill="#cef4ae" d="M 402.5,171.5 C 398.936,170.577 395.269,170.244 391.5,170.5C 394.563,169.799 397.73,169.132 401,168.5C 403.158,169.05 403.658,170.05 402.5,171.5 Z"/></g>
<g><path style="opacity:0.999" fill="#b6f086" d="M 391.5,170.5 C 395.269,170.244 398.936,170.577 402.5,171.5C 403.506,171.938 403.506,172.604 402.5,173.5C 404.669,175.416 407.335,176.75 410.5,177.5C 411.386,176.675 411.719,175.675 411.5,174.5C 412.5,173.167 413.5,173.167 414.5,174.5C 414.611,175.117 414.944,175.617 415.5,176C 418.817,176.498 422.15,176.665 425.5,176.5C 426.791,177.542 426.791,178.708 425.5,180C 427.269,182.7 428.602,185.534 429.5,188.5C 429.427,190.027 430.094,191.027 431.5,191.5C 431.67,192.822 431.337,193.989 430.5,195C 433.004,195.955 435.337,197.122 437.5,198.5C 439.598,199.484 441.598,199.151 443.5,197.5C 445.009,196.141 445.676,196.641 445.5,199C 444.815,201.54 443.981,204.04 443,206.5C 439.63,209.535 436.63,212.868 434,216.5C 433.362,219.536 433.528,222.536 434.5,225.5C 434.122,227.717 433.455,229.717 432.5,231.5C 429.916,231.569 427.916,232.735 426.5,235C 426.728,235.399 427.062,235.565 427.5,235.5C 427.784,237.415 427.451,239.081 426.5,240.5C 425.504,240.414 424.671,240.748 424,241.5C 423.5,260.164 423.333,278.83 423.5,297.5C 318.509,298.645 213.509,298.811 108.5,298C 106.606,296.921 106.273,295.587 107.5,294C 211.723,293.677 315.723,293.844 419.5,294.5C 420.831,287.03 421.498,279.196 421.5,271C 421.167,263.167 420.833,255.333 420.5,247.5C 419.702,247.957 419.369,248.624 419.5,249.5C 416.214,250.207 412.881,250.54 409.5,250.5C 408.596,249.791 408.263,248.791 408.5,247.5C 408.719,246.325 408.386,245.325 407.5,244.5C 406.893,244.624 406.56,244.957 406.5,245.5C 404.26,250.703 402.926,256.037 402.5,261.5C 400.167,261.5 397.833,261.5 395.5,261.5C 395.665,258.15 395.498,254.817 395,251.5C 394.617,250.944 394.117,250.611 393.5,250.5C 391.583,247.669 389.917,244.669 388.5,241.5C 388.715,239.821 388.048,238.821 386.5,238.5C 385.566,237.432 385.232,236.099 385.5,234.5C 392.225,232.63 396.225,234.963 397.5,241.5C 398.032,244.46 398.699,244.793 399.5,242.5C 399.992,240.181 400.992,238.181 402.5,236.5C 404.382,235.779 404.715,234.779 403.5,233.5C 402.689,229.34 402.689,225.006 403.5,220.5C 403.662,218.473 403.495,216.473 403,214.5C 402.329,215.252 401.496,215.586 400.5,215.5C 400.664,212.813 400.497,210.146 400,207.5C 398.275,206.536 396.441,205.869 394.5,205.5C 392.435,205.517 390.435,205.85 388.5,206.5C 385.098,206.658 381.764,206.324 378.5,205.5C 278.335,204.501 178.001,204.167 77.5,204.5C 77.5,213.5 77.5,222.5 77.5,231.5C 75.5257,221.889 74.859,211.889 75.5,201.5C 170.36,200.616 265.36,200.616 360.5,201.5C 365.511,201.666 370.511,201.499 375.5,201C 374.837,199.482 373.837,198.315 372.5,197.5C 371.258,195.611 371.258,193.611 372.5,191.5C 373.371,188.997 374.037,186.33 374.5,183.5C 375.906,183.027 376.573,182.027 376.5,180.5C 379.548,178.118 382.215,175.452 384.5,172.5C 387.01,172.073 389.343,171.407 391.5,170.5 Z"/></g>
<g><path style="opacity:0.827" fill="#d7f6bb" d="M 391.5,170.5 C 389.343,171.407 387.01,172.073 384.5,172.5C 385.964,169.477 388.297,168.81 391.5,170.5 Z"/></g>
<g><path style="opacity:0.822" fill="#daf7c1" d="M 402.5,173.5 C 404.787,173.724 406.953,174.391 409,175.5C 409.902,175.257 410.735,174.923 411.5,174.5C 411.719,175.675 411.386,176.675 410.5,177.5C 407.335,176.75 404.669,175.416 402.5,173.5 Z"/></g>
<g><path style="opacity:0.773" fill="#d7f6bc" d="M 414.5,174.5 C 418.337,174.931 422.003,175.598 425.5,176.5C 422.15,176.665 418.817,176.498 415.5,176C 414.944,175.617 414.611,175.117 414.5,174.5 Z"/></g>
<g><path style="opacity:0.612" fill="#e0f8cc" d="M 376.5,180.5 C 376.573,182.027 375.906,183.027 374.5,183.5C 374.427,181.973 375.094,180.973 376.5,180.5 Z"/></g>
<g><path style="opacity:0.007" fill="#f3fceb" d="M 374.5,183.5 C 374.037,186.33 373.371,188.997 372.5,191.5C 372.337,189.143 372.503,186.81 373,184.5C 373.383,183.944 373.883,183.611 374.5,183.5 Z"/></g>
<g><path style="opacity:0.412" fill="#e6fad5" d="M 429.5,188.5 C 430.906,188.973 431.573,189.973 431.5,191.5C 430.094,191.027 429.427,190.027 429.5,188.5 Z"/></g>
<g><path style="opacity:1" fill="#c3f29b" d="M 431.5,191.5 C 434.213,193.214 436.213,195.547 437.5,198.5C 435.337,197.122 433.004,195.955 430.5,195C 431.337,193.989 431.67,192.822 431.5,191.5 Z"/></g>
<g><path style="opacity:0.314" fill="#ebfbde" d="M 443.5,197.5 C 441.598,199.151 439.598,199.484 437.5,198.5C 439.379,197.659 441.379,197.325 443.5,197.5 Z"/></g>
<g><path style="opacity:0.005" fill="#fcfefa" d="M 372.5,197.5 C 373.837,198.315 374.837,199.482 375.5,201C 370.511,201.499 365.511,201.666 360.5,201.5C 364.647,200.675 368.981,200.175 373.5,200C 372.748,199.329 372.414,198.496 372.5,197.5 Z"/></g>
<g><path style="opacity:0.004" fill="#fcfefb" d="M 378.5,205.5 C 278.5,205.5 178.5,205.5 78.5,205.5C 78.8264,214.349 78.493,223.016 77.5,231.5C 77.5,222.5 77.5,213.5 77.5,204.5C 178.001,204.167 278.335,204.501 378.5,205.5 Z"/></g>
<g><path style="opacity:0.004" fill="#fafef7" d="M 378.5,205.5 C 381.764,206.324 385.098,206.658 388.5,206.5C 385.696,207.638 382.696,207.805 379.5,207C 378.944,206.617 378.611,206.117 378.5,205.5 Z"/></g>
<g><path style="opacity:0.175" fill="#e7fad7" d="M 394.5,205.5 C 396.441,205.869 398.275,206.536 400,207.5C 400.497,210.146 400.664,212.813 400.5,215.5C 399.733,214.828 399.066,213.995 398.5,213C 399.747,211.506 399.747,210.006 398.5,208.5C 396.739,207.965 395.406,206.965 394.5,205.5 Z"/></g>
<g><path style="opacity:0.016" fill="#fdfefc" d="M 84.5,210.5 C 84.1726,220.681 84.506,230.681 85.5,240.5C 85.5,241.167 85.5,241.833 85.5,242.5C 84.1718,237.544 83.5051,232.211 83.5,226.5C 83.5006,220.989 83.8339,215.656 84.5,210.5 Z"/></g>
<g><path style="opacity:0.997" fill="#a9ed73" d="M 84.5,210.5 C 139.167,210.5 193.833,210.5 248.5,210.5C 248.5,236.5 248.5,262.5 248.5,288.5C 199.571,289.661 150.571,289.828 101.5,289C 100.584,288.722 99.9175,288.222 99.5,287.5C 99.0269,286.094 98.0269,285.427 96.5,285.5C 95.391,285.443 94.391,285.11 93.5,284.5C 93.5,283.5 93.5,282.5 93.5,281.5C 82.8333,281.5 72.1667,281.5 61.5,281.5C 60.8333,280.167 59.8333,279.167 58.5,278.5C 57.8362,276.19 57.5029,273.69 57.5,271C 57.3037,267.195 57.9704,263.695 59.5,260.5C 60.9744,259.564 61.9744,258.23 62.5,256.5C 64.0269,256.573 65.0269,255.906 65.5,254.5C 67.4385,252.837 69.7718,252.171 72.5,252.5C 79.1998,252.83 85.8665,252.497 92.5,251.5C 92.3764,250.893 92.0431,250.56 91.5,250.5C 90.0101,248.72 88.0101,248.054 85.5,248.5C 85.5,247.5 85.5,246.5 85.5,245.5C 85.5,245.167 85.5,244.833 85.5,244.5C 86.9063,244.027 87.573,243.027 87.5,241.5C 90.7988,239.699 91.1322,237.699 88.5,235.5C 87.3734,236.122 86.3734,236.955 85.5,238C 86.7736,238.977 86.7736,239.811 85.5,240.5C 84.506,230.681 84.1726,220.681 84.5,210.5 Z M 122.5,235.5 C 125.305,236.319 128.305,236.819 131.5,237C 128.518,237.498 125.518,237.665 122.5,237.5C 123.132,245.573 122.465,253.24 120.5,260.5C 120.5,252.833 120.5,245.167 120.5,237.5C 117.5,237.5 114.5,237.5 111.5,237.5C 114.974,236.475 118.64,235.808 122.5,235.5 Z M 183.5,236.5 C 184.833,238.5 186.5,240.167 188.5,241.5C 188.5,242.833 187.833,243.5 186.5,243.5C 183.723,237.778 179.39,236.112 173.5,238.5C 171.973,238.427 170.973,239.094 170.5,240.5C 168.738,241.262 167.738,242.596 167.5,244.5C 166.366,246.966 166.199,249.633 167,252.5C 167.377,253.942 168.21,254.942 169.5,255.5C 170.262,257.262 171.596,258.262 173.5,258.5C 176.74,259.742 180.074,259.576 183.5,258C 185.141,256.871 186.141,255.371 186.5,253.5C 187.833,253.5 188.5,254.167 188.5,255.5C 186.833,256.5 185.5,257.833 184.5,259.5C 182.847,259.66 181.514,260.326 180.5,261.5C 177.794,261.425 175.127,261.092 172.5,260.5C 163.195,254.162 162.195,246.662 169.5,238C 173.923,235.297 178.589,234.797 183.5,236.5 Z M 140.5,236.5 C 145.511,236.334 150.511,236.501 155.5,237C 151.312,237.176 147.312,237.676 143.5,238.5C 142.523,241.287 142.19,244.287 142.5,247.5C 146.514,247.334 150.514,247.501 154.5,248C 150.644,248.177 146.977,248.677 143.5,249.5C 142.167,252.5 142.167,255.5 143.5,258.5C 147.312,259.324 151.312,259.824 155.5,260C 150.511,260.499 145.511,260.666 140.5,260.5C 140.983,252.452 140.983,244.452 140.5,236.5 Z M 199.5,236.5 C 201.414,239.684 202.08,243.351 201.5,247.5C 206.695,247.821 211.695,247.487 216.5,246.5C 216.5,243.167 216.5,239.833 216.5,236.5C 217.824,240.107 218.491,244.107 218.5,248.5C 218.491,252.893 217.824,256.893 216.5,260.5C 216.5,256.833 216.5,253.167 216.5,249.5C 211.679,248.403 207.013,248.403 202.5,249.5C 202.125,253.442 201.125,257.109 199.5,260.5C 199.5,252.5 199.5,244.5 199.5,236.5 Z M 69.5,258.5 C 71.099,258.232 72.4324,258.566 73.5,259.5C 72.8333,259.5 72.5,259.833 72.5,260.5C 72.1667,260.5 71.8333,260.5 71.5,260.5C 71.1377,267.004 73.6377,268.671 79,265.5C 79.7796,263.613 79.6129,261.946 78.5,260.5C 78.5,259.833 78.1667,259.5 77.5,259.5C 81.6463,258.353 85.9796,258.186 90.5,259C 89.944,259.383 89.6107,259.883 89.5,260.5C 86.8333,262.167 86.8333,263.833 89.5,265.5C 89.7911,266.649 90.6244,267.316 92,267.5C 93.0698,267.472 93.9032,267.139 94.5,266.5C 96.5124,264.792 96.8458,262.792 95.5,260.5C 94.7375,259.732 93.7375,259.232 92.5,259C 93.7932,258.51 95.1266,258.343 96.5,258.5C 96.9887,259.995 97.6554,261.329 98.5,262.5C 97.8333,264.833 97.1667,267.167 96.5,269.5C 87.7577,269.246 79.091,269.246 70.5,269.5C 68.7006,266.495 68.0339,263.162 68.5,259.5C 69.1667,259.5 69.5,259.167 69.5,258.5 Z M 108.5,264.5 C 110.414,267.684 111.08,271.351 110.5,275.5C 109.833,272.833 109.167,270.167 108.5,267.5C 108.5,266.5 108.5,265.5 108.5,264.5 Z M 91.5,273.5 C 90.925,275.411 89.925,277.078 88.5,278.5C 85.5701,279.299 82.5701,279.632 79.5,279.5C 77.5273,278.194 75.8606,276.527 74.5,274.5C 75.1667,274.5 75.8333,274.5 76.5,274.5C 81.4876,275.839 86.4876,275.505 91.5,273.5 Z"/></g>
<g><path style="opacity:0.493" fill="#e7fad7" d="M 84.5,210.5 C 139.331,209.501 194.331,209.168 249.5,209.5C 249.831,236.005 249.498,262.339 248.5,288.5C 248.5,262.5 248.5,236.5 248.5,210.5C 193.833,210.5 139.167,210.5 84.5,210.5 Z"/></g>
<g><path style="opacity:0.008" fill="#f9fef6" d="M 396.5,211.5 C 397.833,212.167 397.833,212.167 396.5,211.5 Z"/></g>
<g><path style="opacity:1" fill="#ccf4a9" d="M 403.5,220.5 C 402.692,218.78 401.692,217.113 400.5,215.5C 401.496,215.586 402.329,215.252 403,214.5C 403.495,216.473 403.662,218.473 403.5,220.5 Z"/></g>
<g><path style="opacity:0.059" fill="#f7fdf1" d="M 437.5,226.5 C 434.999,226.489 434.832,225.822 437,224.5C 437.464,225.094 437.631,225.761 437.5,226.5 Z"/></g>
<g><path style="opacity:0.067" fill="#f3fdec" d="M 437.5,226.5 C 438.833,227.167 438.833,227.167 437.5,226.5 Z"/></g>
<g><path style="opacity:0.994" fill="#afee7b" d="M 61.5,247.5 C 60.1667,247.5 59.5,248.167 59.5,249.5C 59.5,250.5 59.5,251.5 59.5,252.5C 59.7148,254.179 59.0481,255.179 57.5,255.5C 55.8333,254.5 54.5,253.167 53.5,251.5C 52.7101,250.206 51.7101,249.039 50.5,248C 39.1212,247.791 27.7879,247.291 16.5,246.5C 15.8359,244.022 15.5025,241.355 15.5,238.5C 15.2991,234.627 15.9658,230.961 17.5,227.5C 29.3941,227.022 41.0607,226.689 52.5,226.5C 55.5,226.667 58.5,226.833 61.5,227C 62,227.5 62.5,228 63,228.5C 63.6667,234.5 63.6667,240.5 63,246.5C 62.6174,247.056 62.1174,247.389 61.5,247.5 Z"/></g>
<g><path style="opacity:0.988" fill="#bcf18f" d="M 443.5,227.5 C 443.279,232.202 441.946,236.869 439.5,241.5C 438.167,241.5 436.833,241.5 435.5,241.5C 434.861,240.903 434.528,240.07 434.5,239C 435.691,236.162 436.691,233.328 437.5,230.5C 439.947,230.385 441.947,229.385 443.5,227.5 Z"/></g>
<g><path style="opacity:0.62" fill="#dff8c9" d="M 443.5,227.5 C 441.947,229.385 439.947,230.385 437.5,230.5C 438.936,229.571 440.269,228.405 441.5,227C 442.437,226.308 443.103,226.475 443.5,227.5 Z"/></g>
<g><path style="opacity:0.49" fill="#cdf4ae" d="M 28.5,228.5 C 29.2216,228.918 29.7216,229.584 30,230.5C 31.9189,229.029 32.9189,229.362 33,231.5C 31.6015,232.051 30.2682,232.384 29,232.5C 28.3333,229.833 27.6667,229.833 27,232.5C 26.516,230.807 27.016,229.473 28.5,228.5 Z"/></g>
<g><path style="opacity:0.631" fill="#cdf4ae" d="M 37.5,229.5 C 37.56,228.957 37.8933,228.624 38.5,228.5C 39.2508,229.376 39.7508,230.376 40,231.5C 40.7253,229.842 41.892,229.342 43.5,230C 40.8333,230.667 40.8333,231.333 43.5,232C 41.5,232.667 39.5,232.667 37.5,232C 38.7736,231.023 38.7736,230.189 37.5,229.5 Z"/></g>
<g><path style="opacity:0.004" fill="#f1fce7" d="M 432.5,231.5 C 430.858,232.803 429.191,234.136 427.5,235.5C 427.062,235.565 426.728,235.399 426.5,235C 427.916,232.735 429.916,231.569 432.5,231.5 Z"/></g>
<g><path style="opacity:0.339" fill="#ecfbe0" d="M 75.5,201.5 C 74.859,211.889 75.5257,221.889 77.5,231.5C 76.438,233.099 76.438,234.766 77.5,236.5C 76.8826,236.389 76.3826,236.056 76,235.5C 75.1725,239.871 75.3391,244.205 76.5,248.5C 77.4892,244.893 77.8226,241.226 77.5,237.5C 78.8095,241.351 78.8095,245.351 77.5,249.5C 76.8333,249.833 76.1667,250.167 75.5,250.5C 74.7021,246.518 74.0354,242.518 73.5,238.5C 73.5985,227.874 73.7651,217.207 74,206.5C 74.1981,204.618 74.6981,202.952 75.5,201.5 Z"/></g>
<g><path style="opacity:0.226" fill="#eefbe3" d="M 363.5,235.5 C 370.313,234.509 377.313,234.175 384.5,234.5C 384.802,237.059 384.468,239.393 383.5,241.5C 383.5,239.5 383.5,237.5 383.5,235.5C 376.833,235.5 370.167,235.5 363.5,235.5 Z"/></g>
<g><path style="opacity:0.224" fill="#eafade" d="M 403.5,233.5 C 404.715,234.779 404.382,235.779 402.5,236.5C 402.557,235.391 402.89,234.391 403.5,233.5 Z"/></g>
<g><path style="opacity:0.993" fill="#a7ed70" d="M 77.5,236.5 C 77.5,236.833 77.5,237.167 77.5,237.5C 77.8226,241.226 77.4892,244.893 76.5,248.5C 75.3391,244.205 75.1725,239.871 76,235.5C 76.3826,236.056 76.8826,236.389 77.5,236.5 Z"/></g>
<g><path style="opacity:0.007" fill="#fefffe" d="M 216.5,236.5 C 217.209,235.596 218.209,235.263 219.5,235.5C 219.5,244.167 219.5,252.833 219.5,261.5C 218.209,261.737 217.209,261.404 216.5,260.5C 217.824,256.893 218.491,252.893 218.5,248.5C 218.491,244.107 217.824,240.107 216.5,236.5 Z"/></g>
<g><path style="opacity:0.515" fill="#dbf7c4" d="M 281.5,235.5 C 275.833,235.5 270.167,235.5 264.5,235.5C 264.5,244.167 264.5,252.833 264.5,261.5C 263.507,252.682 263.173,243.682 263.5,234.5C 269.69,234.177 275.69,234.51 281.5,235.5 Z"/></g>
<g><path style="opacity:0.995" fill="#a9ed73" d="M 281.5,235.5 C 281.5,237.5 281.5,239.5 281.5,241.5C 278.167,241.5 274.833,241.5 271.5,241.5C 271.5,243.5 271.5,245.5 271.5,247.5C 274.5,247.5 277.5,247.5 280.5,247.5C 280.758,249.19 280.758,251.19 280.5,253.5C 277.5,253.5 274.5,253.5 271.5,253.5C 271.5,256.167 271.5,258.833 271.5,261.5C 269.059,262.756 266.726,262.756 264.5,261.5C 264.5,252.833 264.5,244.167 264.5,235.5C 270.167,235.5 275.833,235.5 281.5,235.5 Z"/></g>
<g><path style="opacity:0.004" fill="#fefffe" d="M 285.5,235.5 C 285.5,244.167 285.5,252.833 285.5,261.5C 284.82,253.432 284.153,245.265 283.5,237C 284.044,236.283 284.711,235.783 285.5,235.5 Z"/></g>
<g><path style="opacity:0.996" fill="#b1ef7e" d="M 304.5,252.5 C 303.285,253.779 303.618,254.779 305.5,255.5C 307.534,257.365 308.201,259.532 307.5,262C 301.708,264.023 298.042,262.189 296.5,256.5C 296.5,255.5 296.5,254.5 296.5,253.5C 295.178,253.33 294.011,253.663 293,254.5C 292.503,256.81 292.337,259.143 292.5,261.5C 290.167,262.833 287.833,262.833 285.5,261.5C 285.5,252.833 285.5,244.167 285.5,235.5C 292.205,233.892 298.872,234.392 305.5,237C 309.696,242.597 309.363,247.763 304.5,252.5 Z M 298.5,242.5 C 299.684,243.688 299.684,244.855 298.5,246C 296.866,246.494 295.199,246.66 293.5,246.5C 293.5,245.167 293.5,243.833 293.5,242.5C 295.167,242.5 296.833,242.5 298.5,242.5 Z"/></g>
<g><path style="opacity:0.995" fill="#b5ef84" d="M 330.5,241.5 C 326.833,241.5 323.167,241.5 319.5,241.5C 319.5,242.833 319.5,244.167 319.5,245.5C 322.833,245.5 326.167,245.5 329.5,245.5C 330.833,247.5 330.833,249.5 329.5,251.5C 326.167,251.5 322.833,251.5 319.5,251.5C 319.5,252.833 319.5,254.167 319.5,255.5C 323.167,255.5 326.833,255.5 330.5,255.5C 330.5,257.5 330.5,259.5 330.5,261.5C 324.421,262.807 318.255,262.807 312,261.5C 311.252,252.465 311.419,243.465 312.5,234.5C 318.509,234.334 324.509,234.501 330.5,235C 331.811,237.274 331.811,239.44 330.5,241.5 Z"/></g>
<g><path style="opacity:0.246" fill="#ebfbde" d="M 342.5,236.5 C 340.283,235.631 337.95,235.298 335.5,235.5C 335.5,244.167 335.5,252.833 335.5,261.5C 334.507,252.682 334.173,243.682 334.5,234.5C 337.698,233.964 340.365,234.631 342.5,236.5 Z"/></g>
<g><path style="opacity:0.995" fill="#aaed74" d="M 342.5,236.5 C 344.262,237.262 345.262,238.596 345.5,240.5C 346.08,242.749 347.413,244.415 349.5,245.5C 349.783,246.289 350.283,246.956 351,247.5C 351.499,243.514 351.666,239.514 351.5,235.5C 353.833,235.5 356.167,235.5 358.5,235.5C 358.5,244.167 358.5,252.833 358.5,261.5C 357.726,262.147 356.726,262.48 355.5,262.5C 353.645,262.66 352.312,261.993 351.5,260.5C 351.446,258.368 350.446,257.035 348.5,256.5C 348.446,254.368 347.446,253.035 345.5,252.5C 345.315,250.804 344.481,249.471 343,248.5C 342.501,252.821 342.334,257.154 342.5,261.5C 340.167,262.833 337.833,262.833 335.5,261.5C 335.5,252.833 335.5,244.167 335.5,235.5C 337.95,235.298 340.283,235.631 342.5,236.5 Z"/></g>
<g><path style="opacity:0.095" fill="#edfbe1" d="M 358.5,261.5 C 358.5,252.833 358.5,244.167 358.5,235.5C 356.167,235.5 353.833,235.5 351.5,235.5C 351.666,239.514 351.499,243.514 351,247.5C 350.283,246.956 349.783,246.289 349.5,245.5C 350.482,242.038 350.815,238.371 350.5,234.5C 353.5,234.5 356.5,234.5 359.5,234.5C 359.827,243.682 359.493,252.682 358.5,261.5 Z"/></g>
<g><path style="opacity:0.995" fill="#afee7c" d="M 363.5,235.5 C 370.167,235.5 376.833,235.5 383.5,235.5C 383.5,237.5 383.5,239.5 383.5,241.5C 381.518,244.81 379.185,247.81 376.5,250.5C 375.272,251.306 374.272,252.306 373.5,253.5C 372.957,253.56 372.624,253.893 372.5,254.5C 376.107,255.489 379.774,255.823 383.5,255.5C 383.5,257.5 383.5,259.5 383.5,261.5C 376.833,262.833 370.167,262.833 363.5,261.5C 363.401,258.763 363.735,256.096 364.5,253.5C 365.701,251.091 367.367,249.091 369.5,247.5C 370.906,247.027 371.573,246.027 371.5,244.5C 372.478,244.189 373.145,243.522 373.5,242.5C 370.232,241.513 366.898,241.18 363.5,241.5C 362.725,239.388 362.725,237.388 363.5,235.5 Z"/></g>
<g><path style="opacity:0.004" fill="#fefffe" d="M 332.5,236.5 C 333.613,237.946 333.78,239.613 333,241.5C 332.506,239.866 332.34,238.199 332.5,236.5 Z"/></g>
<g><path style="opacity:0.688" fill="#cbf4ab" d="M 27.5,237.5 C 29.8568,237.337 32.1902,237.503 34.5,238C 31.8333,238.667 31.8333,239.333 34.5,240C 32.5,240.667 30.5,240.667 28.5,240C 27.7476,239.329 27.4142,238.496 27.5,237.5 Z"/></g>
<g><path style="opacity:0.004" fill="#ecfbdf" d="M 88.5,235.5 C 91.1322,237.699 90.7988,239.699 87.5,241.5C 87.7031,239.956 88.3698,238.622 89.5,237.5C 89.1373,236.817 88.8039,236.15 88.5,235.5 Z"/></g>
<g><path style="opacity:0.144" fill="#f5fdef" d="M 140.5,236.5 C 145.64,235.512 150.974,235.179 156.5,235.5C 156.5,236.5 156.5,237.5 156.5,238.5C 152.167,238.5 147.833,238.5 143.5,238.5C 147.312,237.676 151.312,237.176 155.5,237C 150.511,236.501 145.511,236.334 140.5,236.5 Z"/></g>
<g><path style="opacity:0.275" fill="#effbe5" d="M 183.5,236.5 C 186.167,237.167 187.833,238.833 188.5,241.5C 186.5,240.167 184.833,238.5 183.5,236.5 Z"/></g>
<g><path style="opacity:0.655" fill="#d0f5b2" d="M 44.5,236.5 C 45.4345,237.568 45.7678,238.901 45.5,240.5C 44.5,240.5 43.5,240.5 42.5,240.5C 42.5271,238.801 43.1938,237.467 44.5,236.5 Z"/></g>
<g><path style="opacity:0.669" fill="#d2f5b4" d="M 111.5,237.5 C 114.5,237.5 117.5,237.5 120.5,237.5C 120.5,245.167 120.5,252.833 120.5,260.5C 120.5,260.833 120.5,261.167 120.5,261.5C 119.508,254.018 119.175,246.352 119.5,238.5C 116.615,238.806 113.948,238.473 111.5,237.5 Z"/></g>
<g><path style="opacity:0.06" fill="#fafef6" d="M 122.5,235.5 C 125.833,235.5 129.167,235.5 132.5,235.5C 132.5,236.5 132.5,237.5 132.5,238.5C 129.5,238.5 126.5,238.5 123.5,238.5C 123.5,246.167 123.5,253.833 123.5,261.5C 122.5,261.5 121.5,261.5 120.5,261.5C 120.5,261.167 120.5,260.833 120.5,260.5C 122.465,253.24 123.132,245.573 122.5,237.5C 125.518,237.665 128.518,237.498 131.5,237C 128.305,236.819 125.305,236.319 122.5,235.5 Z"/></g>
<g><path style="opacity:0.004" fill="#fefffe" d="M 360.5,238.5 C 361.525,238.897 361.692,239.563 361,240.5C 360.536,239.906 360.369,239.239 360.5,238.5 Z"/></g>
<g><path style="opacity:0.871" fill="#d7f6bb" d="M 386.5,238.5 C 388.048,238.821 388.715,239.821 388.5,241.5C 387.599,240.71 386.932,239.71 386.5,238.5 Z"/></g>
<g><path style="opacity:0.769" fill="#d6f6ba" d="M 173.5,238.5 C 173.027,239.906 172.027,240.573 170.5,240.5C 170.973,239.094 171.973,238.427 173.5,238.5 Z"/></g>
<g><path style="opacity:0.47" fill="#dcf8c6" d="M 363.5,241.5 C 366.898,241.18 370.232,241.513 373.5,242.5C 373.145,243.522 372.478,244.189 371.5,244.5C 369.143,242.902 366.477,241.902 363.5,241.5 Z"/></g>
<g><path style="opacity:0.569" fill="#e8fad8" d="M 435.5,241.5 C 436.833,241.5 438.167,241.5 439.5,241.5C 437.968,243.781 436.634,243.781 435.5,241.5 Z"/></g>
<g><path style="opacity:0.604" fill="#d9f7bf" d="M 170.5,240.5 C 169.492,242.544 168.492,244.544 167.5,246.5C 167.5,245.833 167.5,245.167 167.5,244.5C 167.738,242.596 168.738,241.262 170.5,240.5 Z"/></g>
<g><path style="opacity:0.376" fill="#e9fadb" d="M 397.5,241.5 C 398.167,241.833 398.833,242.167 399.5,242.5C 398.699,244.793 398.032,244.46 397.5,241.5 Z"/></g>
<g><path style="opacity:0.067" fill="#f2fce9" d="M 87.5,241.5 C 87.573,243.027 86.9063,244.027 85.5,244.5C 85.5,243.833 85.5,243.167 85.5,242.5C 86.1667,242.167 86.8333,241.833 87.5,241.5 Z"/></g>
<g><path style="opacity:0.284" fill="#e3f9d1" d="M 188.5,241.5 C 189.478,241.811 190.145,242.478 190.5,243.5C 189.042,244.782 187.708,244.782 186.5,243.5C 187.833,243.5 188.5,242.833 188.5,241.5 Z"/></g>
<g><path style="opacity:0.004" fill="#fbfef8" d="M 167.5,244.5 C 167.5,245.167 167.5,245.833 167.5,246.5C 167.405,249.692 168.071,252.692 169.5,255.5C 168.21,254.942 167.377,253.942 167,252.5C 166.199,249.633 166.366,246.966 167.5,244.5 Z"/></g>
<g><path style="opacity:0.302" fill="#ebfbde" d="M 330.5,241.5 C 327.311,242.166 323.977,242.833 320.5,243.5C 323.102,244.411 325.935,244.411 329,243.5C 329.464,244.094 329.631,244.761 329.5,245.5C 326.167,245.5 322.833,245.5 319.5,245.5C 319.5,244.167 319.5,242.833 319.5,241.5C 323.167,241.5 326.833,241.5 330.5,241.5 Z"/></g>
<g><path style="opacity:0.255" fill="#e2f9cf" d="M 345.5,240.5 C 347.587,241.585 348.92,243.251 349.5,245.5C 347.413,244.415 346.08,242.749 345.5,240.5 Z"/></g>
<g><path style="opacity:0.103" fill="#f3fceb" d="M 426.5,240.5 C 426.217,241.289 425.717,241.956 425,242.5C 424.832,261.005 424.332,279.338 423.5,297.5C 423.333,278.83 423.5,260.164 424,241.5C 424.671,240.748 425.504,240.414 426.5,240.5 Z"/></g>
<g><path style="opacity:0.141" fill="#f7fdf2" d="M 143.5,238.5 C 143.5,241.167 143.5,243.833 143.5,246.5C 147.5,246.5 151.5,246.5 155.5,246.5C 155.5,247.5 155.5,248.5 155.5,249.5C 151.5,249.5 147.5,249.5 143.5,249.5C 146.977,248.677 150.644,248.177 154.5,248C 150.514,247.501 146.514,247.334 142.5,247.5C 142.19,244.287 142.523,241.287 143.5,238.5 Z"/></g>
<g><path style="opacity:0.061" fill="#f8fdf3" d="M 199.5,236.5 C 200.209,235.596 201.209,235.263 202.5,235.5C 202.5,239.167 202.5,242.833 202.5,246.5C 207.167,246.5 211.833,246.5 216.5,246.5C 211.695,247.487 206.695,247.821 201.5,247.5C 202.08,243.351 201.414,239.684 199.5,236.5 Z"/></g>
<g><path style="opacity:0.356" fill="#e5f9d4" d="M 281.5,241.5 C 279.012,243.388 276.012,244.055 272.5,243.5C 272.5,244.5 272.5,245.5 272.5,246.5C 275.385,246.194 278.052,246.527 280.5,247.5C 277.5,247.5 274.5,247.5 271.5,247.5C 271.5,245.5 271.5,243.5 271.5,241.5C 274.833,241.5 278.167,241.5 281.5,241.5 Z"/></g>
<g><path style="opacity:0.416" fill="#e3f9d0" d="M 371.5,244.5 C 371.573,246.027 370.906,247.027 369.5,247.5C 369.427,245.973 370.094,244.973 371.5,244.5 Z"/></g>
<g><path style="opacity:0.004" fill="#f3fceb" d="M 406.5,245.5 C 406.56,244.957 406.893,244.624 407.5,244.5C 408.386,245.325 408.719,246.325 408.5,247.5C 407.833,246.833 407.167,246.167 406.5,245.5 Z"/></g>
<g><path style="opacity:0.248" fill="#e9fadb" d="M 16.5,246.5 C 27.7879,247.291 39.1212,247.791 50.5,248C 51.7101,249.039 52.7101,250.206 53.5,251.5C 51.8042,251.315 50.4709,250.481 49.5,249C 38.8333,248.667 28.1667,248.333 17.5,248C 16.944,247.617 16.6107,247.117 16.5,246.5 Z"/></g>
<g><path style="opacity:0.125" fill="#f1fce8" d="M 61.5,247.5 C 61.1667,248.5 60.5,249.167 59.5,249.5C 59.5,248.167 60.1667,247.5 61.5,247.5 Z"/></g>
<g><path style="opacity:0.523" fill="#e1f8cd" d="M 298.5,242.5 C 301.017,244.077 301.017,245.91 298.5,248C 296.527,248.495 294.527,248.662 292.5,248.5C 292.5,246.167 292.5,243.833 292.5,241.5C 294.735,241.205 296.735,241.539 298.5,242.5 Z M 298.5,242.5 C 296.833,242.5 295.167,242.5 293.5,242.5C 293.5,243.833 293.5,245.167 293.5,246.5C 295.199,246.66 296.866,246.494 298.5,246C 299.684,244.855 299.684,243.688 298.5,242.5 Z"/></g>
<g><path style="opacity:0.531" fill="#def8c7" d="M 85.5,245.5 C 85.5,246.5 85.5,247.5 85.5,248.5C 88.0101,248.054 90.0101,248.72 91.5,250.5C 89.2478,249.667 87.0811,249.667 85,250.5C 83.0681,248.607 83.2348,246.94 85.5,245.5 Z"/></g>
<g><path style="opacity:0.687" fill="#c5f39f" d="M 419.5,294.5 C 420.823,279.402 420.823,264.402 419.5,249.5C 419.369,248.624 419.702,247.957 420.5,247.5C 420.833,255.333 421.167,263.167 421.5,271C 421.498,279.196 420.831,287.03 419.5,294.5 Z"/></g>
<g><path style="opacity:0.263" fill="#e7fad8" d="M 345.5,252.5 C 344.883,252.389 344.383,252.056 344,251.5C 343.821,255.025 343.321,258.359 342.5,261.5C 342.334,257.154 342.501,252.821 343,248.5C 344.481,249.471 345.315,250.804 345.5,252.5 Z"/></g>
<g><path style="opacity:0.132" fill="#f4fded" d="M 202.5,249.5 C 202.5,253.5 202.5,257.5 202.5,261.5C 201.209,261.737 200.209,261.404 199.5,260.5C 201.125,257.109 202.125,253.442 202.5,249.5 Z"/></g>
<g><path style="opacity:0.004" fill="#e9fad9" d="M 419.5,249.5 C 419.389,250.117 419.056,250.617 418.5,251C 415.905,251.226 413.405,251.726 411,252.5C 410.283,251.956 409.783,251.289 409.5,250.5C 412.881,250.54 416.214,250.207 419.5,249.5 Z"/></g>
<g><path style="opacity:0.005" fill="#fcfefb" d="M 91.5,250.5 C 92.0431,250.56 92.3764,250.893 92.5,251.5C 85.8665,252.497 79.1998,252.83 72.5,252.5C 78.8333,251.833 85.1667,251.167 91.5,250.5 Z"/></g>
<g><path style="opacity:0.004" fill="#f8fdf4" d="M 186.5,253.5 C 187.601,252.402 188.934,252.235 190.5,253C 189.934,253.995 189.267,254.828 188.5,255.5C 188.5,254.167 187.833,253.5 186.5,253.5 Z"/></g>
<g><path style="opacity:0.906" fill="#d9f7bf" d="M 345.5,252.5 C 347.446,253.035 348.446,254.368 348.5,256.5C 347.026,255.564 346.026,254.23 345.5,252.5 Z"/></g>
<g><path style="opacity:0.008" fill="#fcfefa" d="M 376.5,250.5 C 376.586,251.496 376.252,252.329 375.5,253C 378.365,253.183 381.031,253.683 383.5,254.5C 379.958,254.813 376.625,254.479 373.5,253.5C 374.272,252.306 375.272,251.306 376.5,250.5 Z"/></g>
<g><path style="opacity:0.559" fill="#e2f9ce" d="M 393.5,250.5 C 394.117,250.611 394.617,250.944 395,251.5C 395.498,254.817 395.665,258.15 395.5,261.5C 397.833,261.5 400.167,261.5 402.5,261.5C 400.052,262.473 397.385,262.806 394.5,262.5C 394.693,258.434 394.36,254.434 393.5,250.5 Z"/></g>
<g><path style="opacity:0.192" fill="#effce6" d="M 280.5,253.5 C 278.052,254.473 275.385,254.806 272.5,254.5C 272.802,257.059 272.468,259.393 271.5,261.5C 271.5,258.833 271.5,256.167 271.5,253.5C 274.5,253.5 277.5,253.5 280.5,253.5 Z"/></g>
<g><path style="opacity:0.627" fill="#d5f6ba" d="M 296.5,256.5 C 295.778,256.082 295.278,255.416 295,254.5C 294.667,254.833 294.333,255.167 294,255.5C 293.809,257.708 293.309,259.708 292.5,261.5C 292.337,259.143 292.503,256.81 293,254.5C 294.011,253.663 295.178,253.33 296.5,253.5C 296.5,254.5 296.5,255.5 296.5,256.5 Z"/></g>
<g><path style="opacity:0.208" fill="#e9fada" d="M 304.5,252.5 C 305.11,253.391 305.443,254.391 305.5,255.5C 303.618,254.779 303.285,253.779 304.5,252.5 Z"/></g>
<g><path style="opacity:0.187" fill="#edfbe1" d="M 329.5,251.5 C 329.5,251.833 329.5,252.167 329.5,252.5C 330.94,253.946 331.607,255.779 331.5,258C 331.486,259.385 331.152,260.551 330.5,261.5C 330.5,259.5 330.5,257.5 330.5,255.5C 326.833,255.5 323.167,255.5 319.5,255.5C 319.5,254.167 319.5,252.833 319.5,251.5C 322.833,251.5 326.167,251.5 329.5,251.5 Z M 329.5,252.5 C 328.486,253.765 326.986,254.431 325,254.5C 323.5,254.167 322,253.833 320.5,253.5C 323.428,252.516 326.428,252.183 329.5,252.5 Z"/></g>
<g><path style="opacity:0.71" fill="#caf4a7" d="M 373.5,253.5 C 376.625,254.479 379.958,254.813 383.5,254.5C 384.833,256.833 384.833,259.167 383.5,261.5C 383.5,259.5 383.5,257.5 383.5,255.5C 379.774,255.823 376.107,255.489 372.5,254.5C 372.624,253.893 372.957,253.56 373.5,253.5 Z"/></g>
<g><path style="opacity:0.769" fill="#d8f7be" d="M 59.5,252.5 C 60.0221,254.219 61.0221,255.552 62.5,256.5C 61.9744,258.23 60.9744,259.564 59.5,260.5C 59.6085,258.486 58.9418,256.82 57.5,255.5C 59.0481,255.179 59.7148,254.179 59.5,252.5 Z"/></g>
<g><path style="opacity:0.686" fill="#dcf7c5" d="M 65.5,254.5 C 65.0269,255.906 64.0269,256.573 62.5,256.5C 62.9731,255.094 63.9731,254.427 65.5,254.5 Z"/></g>
<g><path style="opacity:0.804" fill="#def8c6" d="M 169.5,255.5 C 171.404,255.738 172.738,256.738 173.5,258.5C 171.596,258.262 170.262,257.262 169.5,255.5 Z"/></g>
<g><path style="opacity:0.941" fill="#d8f7bd" d="M 348.5,256.5 C 350.446,257.035 351.446,258.368 351.5,260.5C 350.026,259.564 349.026,258.23 348.5,256.5 Z"/></g>
<g><path style="opacity:0.424" fill="#dff8cb" d="M 364.5,253.5 C 363.735,256.096 363.401,258.763 363.5,261.5C 362.848,260.551 362.514,259.385 362.5,258C 362.307,255.992 362.974,254.492 364.5,253.5 Z"/></g>
<g><path style="opacity:0.004" fill="#fafef7" d="M 69.5,258.5 C 78.5,257.167 87.5,257.167 96.5,258.5C 95.1266,258.343 93.7932,258.51 92.5,259C 93.7375,259.232 94.7375,259.732 95.5,260.5C 94.7611,260.369 94.0944,260.536 93.5,261C 95.1612,264.15 94.1612,265.65 90.5,265.5C 93.2278,263.383 92.8944,261.716 89.5,260.5C 89.6107,259.883 89.944,259.383 90.5,259C 85.9796,258.186 81.6463,258.353 77.5,259.5C 76.1667,259.5 74.8333,259.5 73.5,259.5C 72.4324,258.566 71.099,258.232 69.5,258.5 Z"/></g>
<g><path style="opacity:0.278" fill="#edfbe1" d="M 188.5,255.5 C 188.167,257.833 186.833,259.167 184.5,259.5C 185.5,257.833 186.833,256.5 188.5,255.5 Z"/></g>
<g><path style="opacity:0.005" fill="#fefffe" d="M 143.5,258.5 C 147.833,258.5 152.167,258.5 156.5,258.5C 156.5,259.5 156.5,260.5 156.5,261.5C 150.974,261.821 145.64,261.488 140.5,260.5C 145.511,260.666 150.511,260.499 155.5,260C 151.312,259.824 147.312,259.324 143.5,258.5 Z"/></g>
<g><path style="opacity:0.997" fill="#b1ef7e" d="M 47.5,260.5 C 47.8333,261.5 48.5,262.167 49.5,262.5C 51.9994,265.715 51.666,268.715 48.5,271.5C 47.5,271.833 46.8333,272.5 46.5,273.5C 45.609,274.11 44.609,274.443 43.5,274.5C 40.5,274.5 37.5,274.5 34.5,274.5C 33.5084,274.672 32.8417,274.338 32.5,273.5C 32.0269,272.094 31.0269,271.427 29.5,271.5C 28.3369,263.145 32.1702,258.811 41,258.5C 43.5437,258.336 45.7103,259.003 47.5,260.5 Z"/></g>
<g><path style="opacity:0.004" fill="#f2fcea" d="M 47.5,260.5 C 48.8333,260.5 49.5,261.167 49.5,262.5C 48.5,262.167 47.8333,261.5 47.5,260.5 Z"/></g>
<g><path style="opacity:0.536" fill="#d6f6bc" d="M 68.5,259.5 C 68.0339,263.162 68.7006,266.495 70.5,269.5C 69.5041,269.586 68.6708,269.252 68,268.5C 67.1955,265.304 67.3622,262.304 68.5,259.5 Z"/></g>
<g><path style="opacity:0.545" fill="#d1f5b4" d="M 95.5,260.5 C 96.8458,262.792 96.5124,264.792 94.5,266.5C 92.901,266.768 91.5676,266.434 90.5,265.5C 94.1612,265.65 95.1612,264.15 93.5,261C 94.0944,260.536 94.7611,260.369 95.5,260.5 Z"/></g>
<g><path style="opacity:0.004" fill="#f5fdee" d="M 96.5,258.5 C 98.1765,259.183 98.8432,260.517 98.5,262.5C 97.6554,261.329 96.9887,259.995 96.5,258.5 Z"/></g>
<g><path style="opacity:0.98" fill="#bcf192" d="M 73.5,259.5 C 74.8333,259.5 76.1667,259.5 77.5,259.5C 78.1667,259.5 78.5,259.833 78.5,260.5C 77.4481,260.771 76.1147,260.938 74.5,261C 75.4158,261.278 76.0825,261.778 76.5,262.5C 76.5,262.833 76.5,263.167 76.5,263.5C 75.3754,264.014 74.2087,264.347 73,264.5C 72.51,263.207 72.3433,261.873 72.5,260.5C 72.5,259.833 72.8333,259.5 73.5,259.5 Z"/></g>
<g><path style="opacity:0.616" fill="#ccf4aa" d="M 89.5,260.5 C 92.8944,261.716 93.2278,263.383 90.5,265.5C 90.1667,265.5 89.8333,265.5 89.5,265.5C 86.8333,263.833 86.8333,262.167 89.5,260.5 Z"/></g>
<g><path style="opacity:0.555" fill="#cef4af" d="M 172.5,260.5 C 175.127,261.092 177.794,261.425 180.5,261.5C 177.66,262.917 174.993,262.584 172.5,260.5 Z"/></g>
<g><path style="opacity:0.294" fill="#edfbe0" d="M 71.5,260.5 C 71.8333,260.5 72.1667,260.5 72.5,260.5C 72.3433,261.873 72.51,263.207 73,264.5C 74.2087,264.347 75.3754,264.014 76.5,263.5C 77.8333,263.167 77.8333,262.833 76.5,262.5C 76.0825,261.778 75.4158,261.278 74.5,261C 76.1147,260.938 77.4481,260.771 78.5,260.5C 79.6129,261.946 79.7796,263.613 79,265.5C 73.6377,268.671 71.1377,267.004 71.5,260.5 Z"/></g>
<g><path style="opacity:0.004" fill="#fbfef9" d="M 108.5,264.5 C 109.209,263.596 110.209,263.263 111.5,263.5C 111.817,267.702 111.483,271.702 110.5,275.5C 111.08,271.351 110.414,267.684 108.5,264.5 Z"/></g>
<g><path style="opacity:0.005" fill="#fdfefc" d="M 89.5,265.5 C 89.8333,265.5 90.1667,265.5 90.5,265.5C 91.5676,266.434 92.901,266.768 94.5,266.5C 93.9032,267.139 93.0698,267.472 92,267.5C 90.6244,267.316 89.7911,266.649 89.5,265.5 Z"/></g>
<g><path style="opacity:0.235" fill="#edfbe1" d="M 108.5,267.5 C 109.167,270.167 109.833,272.833 110.5,275.5C 110.44,276.043 110.107,276.376 109.5,276.5C 108.516,273.572 108.183,270.572 108.5,267.5 Z"/></g>
<g><path style="opacity:0.521" fill="#d6f6bd" d="M 96.5,269.5 C 87.8333,270.833 79.1667,270.833 70.5,269.5C 79.091,269.246 87.7577,269.246 96.5,269.5 Z"/></g>
<g><path style="opacity:0.631" fill="#e1f9cb" d="M 29.5,271.5 C 31.0269,271.427 32.0269,272.094 32.5,273.5C 30.9731,273.573 29.9731,272.906 29.5,271.5 Z"/></g>
<g><path style="opacity:0.063" fill="#edfbe1" d="M 48.5,271.5 C 49.1098,272.391 49.4431,273.391 49.5,274.5C 48.8333,274.5 48.1667,274.5 47.5,274.5C 47.5,273.833 47.1667,273.5 46.5,273.5C 46.8333,272.5 47.5,271.833 48.5,271.5 Z"/></g>
<g><path style="opacity:0.184" fill="#ecfbdf" d="M 76.5,274.5 C 75.8333,274.5 75.1667,274.5 74.5,274.5C 73.475,274.103 73.3083,273.437 74,272.5C 74.9947,273.066 75.828,273.733 76.5,274.5 Z"/></g>
<g><path style="opacity:0.247" fill="#eafbdc" d="M 34.5,274.5 C 37.5,274.5 40.5,274.5 43.5,274.5C 41.7078,275.309 39.7078,275.809 37.5,276C 38.056,276.383 38.3893,276.883 38.5,277.5C 37.6618,277.842 37.3284,278.508 37.5,279.5C 36.6923,277.78 35.6923,276.113 34.5,274.5 Z"/></g>
<g><path style="opacity:0.997" fill="#b0ee7d" d="M 47.5,274.5 C 48.1667,274.5 48.8333,274.5 49.5,274.5C 50.3382,274.842 50.6716,275.508 50.5,276.5C 50.427,278.027 51.0937,279.027 52.5,279.5C 53.8333,280.5 55.1667,281.5 56.5,282.5C 56.8212,284.048 57.8212,284.715 59.5,284.5C 60.4916,284.328 61.1583,284.662 61.5,285.5C 62.9516,286.302 64.6183,286.802 66.5,287C 65.944,287.383 65.6107,287.883 65.5,288.5C 62.0922,292.319 58.9255,296.319 56,300.5C 53.3661,299.774 51.1995,298.441 49.5,296.5C 49.0269,295.094 48.0269,294.427 46.5,294.5C 41.7252,290.626 38.7252,285.626 37.5,279.5C 37.3284,278.508 37.6618,277.842 38.5,277.5C 42.1125,278.076 45.1125,277.076 47.5,274.5 Z"/></g>
<g><path style="opacity:0.824" fill="#d1f5b2" d="M 88.5,278.5 C 89.925,277.078 90.925,275.411 91.5,273.5C 92.612,273.486 92.7787,274.486 92,276.5C 91.1841,277.823 90.0174,278.489 88.5,278.5 Z"/></g>
<g><path style="opacity:0.451" fill="#def8c8" d="M 50.5,276.5 C 51.9063,276.973 52.573,277.973 52.5,279.5C 51.0937,279.027 50.427,278.027 50.5,276.5 Z"/></g>
<g><path style="opacity:0.004" fill="#eefbe3" d="M 58.5,278.5 C 59.8333,279.167 60.8333,280.167 61.5,281.5C 59.5,281.5 58.5,280.5 58.5,278.5 Z"/></g>
<g><path style="opacity:0.894" fill="#d2f5b4" d="M 88.5,278.5 C 88.3893,279.117 88.056,279.617 87.5,280C 84.633,280.801 81.9664,280.634 79.5,279.5C 82.5701,279.632 85.5701,279.299 88.5,278.5 Z"/></g>
<g><path style="opacity:0.247" fill="#e9fbdb" d="M 61.5,281.5 C 72.1667,281.5 82.8333,281.5 93.5,281.5C 93.5,282.5 93.5,283.5 93.5,284.5C 82.9091,282.881 72.2424,281.881 61.5,281.5 Z"/></g>
<g><path style="opacity:0.004" fill="#edfbe0" d="M 56.5,282.5 C 57.7095,282.932 58.7095,283.599 59.5,284.5C 57.8212,284.715 56.8212,284.048 56.5,282.5 Z"/></g>
<g><path style="opacity:0.082" fill="#effce5" d="M 71.5,284.5 C 71.8966,283.475 72.5632,283.308 73.5,284C 72.9056,284.464 72.2389,284.631 71.5,284.5 Z"/></g>
<g><path style="opacity:0.024" fill="#f4fdee" d="M 71.5,284.5 C 70.8333,285.167 70.8333,285.167 71.5,284.5 Z"/></g>
<g><path style="opacity:0.267" fill="#eafbdd" d="M 61.5,285.5 C 64.1873,285.336 66.854,285.503 69.5,286C 68.5291,287.481 67.1958,288.315 65.5,288.5C 65.6107,287.883 65.944,287.383 66.5,287C 64.6183,286.802 62.9516,286.302 61.5,285.5 Z"/></g>
<g><path style="opacity:0.247" fill="#e7f9d7" d="M 96.5,285.5 C 98.0269,285.427 99.0269,286.094 99.5,287.5C 97.9731,287.573 96.9731,286.906 96.5,285.5 Z"/></g>
<g><path style="opacity:0.69" fill="#dcf7c4" d="M 46.5,294.5 C 48.0269,294.427 49.0269,295.094 49.5,296.5C 47.9731,296.573 46.9731,295.906 46.5,294.5 Z"/></g>
<g><path style="opacity:0.57" fill="#e3f9d0" d="M 103.5,295.5 C 89.4213,295.185 75.4213,295.518 61.5,296.5C 61.5774,295.25 62.244,294.417 63.5,294C 69,293.833 74.5,293.667 80,293.5C 88.0602,293.307 95.8935,293.973 103.5,295.5 Z"/></g>
<g><path style="opacity:0.996" fill="#b5ef85" d="M 103.5,295.5 C 104.79,296.058 105.623,297.058 106,298.5C 106.851,304.253 106.517,309.92 105,315.5C 103.933,316.191 102.766,316.691 101.5,317C 89.1667,317.667 76.8333,317.667 64.5,317C 60.0924,314.279 58.759,310.445 60.5,305.5C 60.3677,302.43 60.701,299.43 61.5,296.5C 75.4213,295.518 89.4213,295.185 103.5,295.5 Z M 67.5,304.5 C 65.9731,304.573 64.9731,303.906 64.5,302.5C 66.1227,301.509 67.1227,302.176 67.5,304.5 Z M 73.5,304.5 C 72.8333,304.167 72.1667,303.833 71.5,303.5C 72.2376,301.24 73.2376,301.073 74.5,303C 73.944,303.383 73.6107,303.883 73.5,304.5 Z M 85.5,301.5 C 87.4646,301.948 87.7979,302.948 86.5,304.5C 84.4807,303.867 84.1474,302.867 85.5,301.5 Z M 93.5,304.5 C 92.8333,304.167 92.1667,303.833 91.5,303.5C 92.2376,301.24 93.2376,301.073 94.5,303C 93.944,303.383 93.6107,303.883 93.5,304.5 Z M 101.5,301.5 C 101.443,302.609 101.11,303.609 100.5,304.5C 97.6618,302.694 97.9952,301.694 101.5,301.5 Z M 80.5,304.5 C 79.8333,304.5 79.1667,304.5 78.5,304.5C 78.74,301.707 79.74,301.207 81.5,303C 80.944,303.383 80.6107,303.883 80.5,304.5 Z M 64.5,307.5 C 68.2861,308.695 68.2861,309.362 64.5,309.5C 64.5,308.833 64.5,308.167 64.5,307.5 Z M 71.5,307.5 C 72.675,307.281 73.675,307.614 74.5,308.5C 72.9483,309.798 71.9483,309.465 71.5,307.5 Z M 78.5,307.5 C 80.0269,307.427 81.0269,308.094 81.5,309.5C 79.8212,309.715 78.8212,309.048 78.5,307.5 Z M 85.5,307.5 C 88.1667,308.167 88.1667,308.833 85.5,309.5C 84.4937,309.062 84.4937,308.396 85.5,307.5 Z M 91.5,307.5 C 92.675,307.281 93.675,307.614 94.5,308.5C 92.9483,309.798 91.9483,309.465 91.5,307.5 Z M 98.5,307.5 C 99.675,307.281 100.675,307.614 101.5,308.5C 99.9483,309.798 98.9483,309.465 98.5,307.5 Z"/></g>
<g><path style="opacity:0.004" fill="#fafef7" d="M 61.5,296.5 C 60.701,299.43 60.3677,302.43 60.5,305.5C 59.3659,303.034 59.1993,300.367 60,297.5C 60.3826,296.944 60.8826,296.611 61.5,296.5 Z"/></g>
<g><path style="opacity:0.192" fill="#e9fadb" d="M 73.5,304.5 C 73.6107,303.883 73.944,303.383 74.5,303C 73.2376,301.073 72.2376,301.24 71.5,303.5C 70.2264,302.811 70.2264,301.977 71.5,301C 73.6073,300.146 74.9407,300.812 75.5,303C 75.1639,304.03 74.4972,304.53 73.5,304.5 Z"/></g>
<g><path style="opacity:0.188" fill="#e9fadb" d="M 93.5,304.5 C 93.6107,303.883 93.944,303.383 94.5,303C 93.2376,301.073 92.2376,301.24 91.5,303.5C 90.2264,302.811 90.2264,301.977 91.5,301C 93.6073,300.146 94.9407,300.812 95.5,303C 95.1639,304.03 94.4972,304.53 93.5,304.5 Z"/></g>
<g><path style="opacity:0.005" fill="#f7fdf2" d="M 67.5,304.5 C 67.1227,302.176 66.1227,301.509 64.5,302.5C 64.9731,303.906 65.9731,304.573 67.5,304.5 Z"/></g>
<g><path style="opacity:0.059" fill="#e7fad7" d="M 80.5,304.5 C 80.6107,303.883 80.944,303.383 81.5,303C 79.74,301.207 78.74,301.707 78.5,304.5C 77.0716,302.623 77.5716,301.289 80,300.5C 82.9342,301.744 83.1009,303.078 80.5,304.5 Z M 80.5,304.5 C 79.8333,304.5 79.1667,304.5 78.5,304.5C 78.74,301.707 79.74,301.207 81.5,303C 80.944,303.383 80.6107,303.883 80.5,304.5 Z"/></g>
<g><path style="opacity:0.631" fill="#def8c9" d="M 101.5,301.5 C 102.885,302.947 102.552,303.947 100.5,304.5C 101.11,303.609 101.443,302.609 101.5,301.5 Z"/></g>
<g><path style="opacity:0.006" fill="#f9fef6" d="M 64.5,307.5 C 65.5676,306.566 66.901,306.232 68.5,306.5C 68.5,307.833 68.5,309.167 68.5,310.5C 66.901,310.768 65.5676,310.434 64.5,309.5C 65.5676,310.434 66.901,310.768 68.5,310.5C 68.5,309.167 68.5,307.833 68.5,306.5C 66.901,306.232 65.5676,306.566 64.5,307.5 Z"/></g>
<g><path style="opacity:0.004" fill="#f2fce9" d="M 78.5,307.5 C 79.2506,306.427 80.2506,306.26 81.5,307C 82.7736,307.977 82.7736,308.811 81.5,309.5C 81.0269,308.094 80.0269,307.427 78.5,307.5 Z"/></g>
<g><path style="opacity:0.006" fill="#f8fdf4" d="M 85.5,307.5 C 86.209,306.596 87.209,306.263 88.5,306.5C 88.5,307.833 88.5,309.167 88.5,310.5C 87.209,310.737 86.209,310.404 85.5,309.5C 88.1667,308.833 88.1667,308.167 85.5,307.5 Z"/></g>
</svg>
